<svg xmlns="http://www.w3.org/2000/svg" viewBox="0 0 1024 1024">
  <!-- Contour blanc extérieur pour effet sticker -->
  <g id="white-outline" stroke="white" stroke-width="20" fill="none">
    <path d="M 493.5,762.5 C 493.423,761.25 492.756,760.417 491.5,760C 492.945,757.243 494.945,755.076 497.5,753.5C 499.687,754.758 502.02,755.758 504.5,756.5C 504.56,757.043 504.893,757.376 505.5,757.5C 506.832,687.001 506.832,616.668 505.5,546.5C 451.636,516.404 397.969,486.071 344.5,455.5C 345.376,455.631 346.043,455.298 346.5,454.5C 348.02,452.338 349.02,450.005 349.5,447.5C 403.483,477.492 457.483,507.492 511.5,537.5C 537.784,523.691 563.784,509.358 589.5,494.5C 585.872,487.952 583.872,480.952 583.5,473.5C 559.449,486.277 535.282,498.943 511,511.5C 471.814,490.154 432.647,468.654 393.5,447C 391.009,443.283 388.176,439.783 385,436.5C 384.287,433.525 385.121,431.025 387.5,429C 382.388,428.456 378.721,425.956 376.5,421.5C 367.806,426.179 359.14,430.846 350.5,435.5C 350.489,433.983 349.823,432.816 348.5,432C 349.706,430.982 349.373,430.482 347.5,430.5C 343.286,432.774 338.953,434.774 334.5,436.5C 333.287,436.253 332.62,435.586 332.5,434.5C 351.892,423.385 371.392,412.385 391,401.5C 393.734,392.399 396.234,383.233 398.5,374C 393.872,365.576 390.206,356.743 387.5,347.5C 387.59,344.848 386.924,342.515 385.5,340.5C 383.425,327.572 382.592,314.572 383,301.5C 382.982,293.383 385.482,286.217 390.5,280C 416.411,279.58 440.078,286.747 461.5,301.5C 489.871,288.109 519.371,284.775 550,291.5C 566.165,273.832 585.665,261.332 608.5,254C 614.581,252.142 619.081,253.975 622,259.5C 631.513,279.079 635.18,299.746 633,321.5C 632.411,329.872 630.911,338.038 628.5,346C 634,356.167 639.5,366.333 645,376.5C 649.932,381.435 655.432,385.601 661.5,389C 663.984,391.284 664.151,393.784 662,396.5C 659.863,397.479 658.029,398.812 656.5,400.5C 657.935,401.929 658.935,403.595 659.5,405.5C 658.661,408.674 656.995,411.341 654.5,413.5C 668.416,421.708 682.25,430.041 696,438.5C 696.667,515.5 696.667,592.5 696,669.5C 635.742,703.714 575.242,737.547 514.5,771C 512.5,771.667 510.5,771.667 508.5,771C 503.437,768.139 498.437,765.306 493.5,762.5 Z"/>
  </g>

  <!-- Structure de base -->
  <g id="Base-Structure">
    <path fill="oklch(40.2% 0.03 252.1)" d="M 493.5,762.5 C 493.423,761.25 492.756,760.417 491.5,760C 492.945,757.243 494.945,755.076 497.5,753.5C 499.687,754.758 502.02,755.758 504.5,756.5C 504.56,757.043 504.893,757.376 505.5,757.5C 506.832,687.001 506.832,616.668 505.5,546.5C 451.636,516.404 397.969,486.071 344.5,455.5C 345.376,455.631 346.043,455.298 346.5,454.5C 348.02,452.338 349.02,450.005 349.5,447.5C 403.483,477.492 457.483,507.492 511.5,537.5C 537.784,523.691 563.784,509.358 589.5,494.5C 585.872,487.952 583.872,480.952 583.5,473.5C 559.449,486.277 535.282,498.943 511,511.5C 471.814,490.154 432.647,468.654 393.5,447C 391.009,443.283 388.176,439.783 385,436.5C 384.287,433.525 385.121,431.025 387.5,429C 382.388,428.456 378.721,425.956 376.5,421.5C 367.806,426.179 359.14,430.846 350.5,435.5C 350.489,433.983 349.823,432.816 348.5,432C 349.706,430.982 349.373,430.482 347.5,430.5C 343.286,432.774 338.953,434.774 334.5,436.5C 333.287,436.253 332.62,435.586 332.5,434.5C 351.892,423.385 371.392,412.385 391,401.5C 393.734,392.399 396.234,383.233 398.5,374C 393.872,365.576 390.206,356.743 387.5,347.5C 387.59,344.848 386.924,342.515 385.5,340.5C 383.425,327.572 382.592,314.572 383,301.5C 382.982,293.383 385.482,286.217 390.5,280C 416.411,279.58 440.078,286.747 461.5,301.5C 489.871,288.109 519.371,284.775 550,291.5C 566.165,273.832 585.665,261.332 608.5,254C 614.581,252.142 619.081,253.975 622,259.5C 631.513,279.079 635.18,299.746 633,321.5C 632.411,329.872 630.911,338.038 628.5,346C 634,356.167 639.5,366.333 645,376.5C 649.932,381.435 655.432,385.601 661.5,389C 663.984,391.284 664.151,393.784 662,396.5C 659.863,397.479 658.029,398.812 656.5,400.5C 657.935,401.929 658.935,403.595 659.5,405.5C 658.661,408.674 656.995,411.341 654.5,413.5C 668.416,421.708 682.25,430.041 696,438.5C 696.667,515.5 696.667,592.5 696,669.5C 635.742,703.714 575.242,737.547 514.5,771C 512.5,771.667 510.5,771.667 508.5,771C 503.437,768.139 498.437,765.306 493.5,762.5 Z"/>
    <path fill="oklch(67.76% 0.12 355.76)" d="M 617.5,272.5 C 616.883,272.389 616.383,272.056 616,271.5C 613.552,272.973 611.052,274.307 608.5,275.5C 604.396,275.884 600.729,277.384 597.5,280C 588.88,286.934 582.213,295.267 577.5,305C 577.99,307.503 579.323,309.503 581.5,311C 598.428,321.927 611.928,336.094 622,353.5C 626.951,365.919 633.785,377.086 642.5,387C 645.328,389.248 648.328,391.248 651.5,393C 636.718,394.793 635.718,399.459 648.5,407C 641.685,413.981 634.685,420.815 627.5,427.5C 627.44,426.957 627.107,426.624 626.5,426.5C 616.403,429.289 606.069,430.623 595.5,430.5C 582.699,431.066 570.699,428.233 559.5,422C 552.167,416.667 544.833,411.333 537.5,406C 527.11,398.681 516.777,398.681 506.5,406C 499.5,413.667 492.5,421.333 485.5,429C 474.145,438.13 461.145,443.796 446.5,446C 437.365,446.976 428.365,447.809 419.5,448.5C 411.535,443.553 403.535,438.553 395.5,433.5C 406.334,422.939 404.001,418.606 388.5,420.5C 393.323,415.525 397.157,409.858 400,403.5C 403.751,384.579 410.085,366.579 419,349.5C 425.287,340.878 431.953,332.545 439,324.5C 439.667,323.167 439.667,321.833 439,320.5C 436.297,317.629 433.464,314.962 430.5,312.5C 430.918,311.778 431.584,311.278 432.5,311C 430.266,310.031 428.266,308.698 426.5,307C 427.784,306.316 428.951,306.483 430,307.5C 431,305.833 432,304.167 433,302.5C 433.667,303.167 434.333,303.833 435,304.5C 435.04,302.276 435.206,300.276 435.5,298.5C 441.889,300.862 447.889,304.029 453.5,308C 450.02,310.297 448.02,313.464 447.5,317.5C 456.156,313.84 464.823,310.173 473.5,306.5C 475.021,315.26 477.854,323.593 482,331.5C 484.471,335.504 487.971,337.504 492.5,337.5C 492.957,325.578 491.457,313.911 488,302.5C 486.644,303.38 485.144,303.714 483.5,303.5C 488.201,301.429 493.201,300.096 498.5,299.5C 499.604,315.861 503.438,331.527 510,346.5C 513.018,351.265 516.351,351.598 520,347.5C 521.197,344.911 522.197,342.244 523,339.5C 523.618,325.822 523.451,312.155 522.5,298.5C 525.5,298.5 528.5,298.5 531.5,298.5C 531.977,309.599 533.31,320.599 535.5,331.5C 539.096,333.279 541.596,332.279 543,328.5C 546.897,319.575 548.397,310.242 547.5,300.5C 554.584,301.418 561.584,302.751 568.5,304.5C 568.649,303.448 568.483,302.448 568,301.5C 565.78,298.979 563.28,296.812 560.5,295C 574.116,279.69 590.783,269.19 610.5,263.5C 611.772,263.57 612.938,263.903 614,264.5C 615.454,267.071 616.62,269.738 617.5,272.5 Z"/>
  </g>

  <!-- Détails du visage (simplifiés) -->
  <g id="Face">
    <path fill="oklch(96.96% 0.01 60.5)" d="M 570.5,412.5 C 582.541,409.963 588.874,402.463 589.5,390C 588.42,380.164 583.42,373.164 574.5,369C 566.449,366.168 559.116,367.334 552.5,372.5C 552.511,370.983 553.177,369.816 554.5,369C 565.297,362.054 576.297,361.721 587.5,368C 599.92,378.949 601.753,391.449 593,405.5C 586.235,412.237 578.068,415.07 568.5,414C 569.416,413.722 570.082,413.222 570.5,412.5 Z"/>
    <path fill="oklch(96.96% 0.01 60.5)" d="M 480.5,379.5 C 458.741,374.421 448.241,383.088 449,405.5C 452.694,416.378 460.194,422.045 471.5,422.5C 459.881,426.972 450.381,423.972 443,413.5C 435.216,396.179 439.716,383.346 456.5,375C 465.439,372.111 473.439,373.611 480.5,379.5 Z"/>
    <path fill="oklch(40.2% 0.03 252.1)" d="M 570.5,412.5 C 558.704,413.515 550.538,408.515 546,397.5C 542.767,387.708 544.934,379.374 552.5,372.5C 559.116,367.334 566.449,366.168 574.5,369C 583.42,373.164 588.42,380.164 589.5,390C 588.874,402.463 582.541,409.963 570.5,412.5 Z"/>
    <path fill="oklch(40.2% 0.03 252.1)" d="M 480.5,379.5 C 492.784,387.88 495.617,398.88 489,412.5C 484.702,418.564 478.869,421.898 471.5,422.5C 460.194,422.045 452.694,416.378 449,405.5C 448.241,383.088 458.741,374.421 480.5,379.5 Z"/>
    <path fill="oklch(40.2% 0.03 252.1)" d="M 519.5,426.5 C 519.461,427.756 519.961,428.756 521,429.5C 522.193,427.503 523.693,425.836 525.5,424.5C 531.327,432.964 536.327,432.464 540.5,423C 541.635,422.251 542.635,422.417 543.5,423.5C 544.243,433.245 539.576,437.412 529.5,436C 527.413,435.208 525.579,434.041 524,432.5C 517.186,439.864 510.186,440.198 503,433.5C 502.087,425.536 503.921,424.703 508.5,431C 513.562,432.607 517.228,431.107 519.5,426.5 Z"/>
  </g>

  <!-- Face gauche du cube (secondary) -->
  <path fill="oklch(75.46% 0.08 221.25)" d="M 336.5,451.5 C 338.938,453.267 341.605,454.601 344.5,455.5C 397.969,486.071 451.636,516.404 505.5,546.5C 505.833,616.669 505.499,686.669 504.5,756.5C 502.02,755.758 499.687,754.758 497.5,753.5C 444.229,723.861 390.896,694.194 337.5,664.5C 336.5,593.503 336.167,522.503 336.5,451.5 Z"/>

  <!-- Face droite du cube (primary) -->
  <path fill="oklch(67.76% 0.12 355.76)" d="M 683.5,453.5 C 685.497,523.159 686.163,593.159 685.5,663.5C 685.5,663.833 685.5,664.167 685.5,664.5C 629.994,695.42 574.327,726.087 518.5,756.5C 517.501,686.669 517.167,616.669 517.5,546.5C 543.794,531.898 570.128,517.231 596.5,502.5C 617.539,515.177 636.372,512.511 653,494.5C 657.634,485.775 659.801,476.441 659.5,466.5C 667.517,462.138 675.517,457.805 683.5,453.5 Z"/>
</svg>
