<?xml version="1.0" encoding="UTF-8" standalone="no"?>
<!DOCTYPE svg PUBLIC "-//W3C//DTD SVG 1.1//EN" "http://www.w3.org/Graphics/SVG/1.1/DTD/svg11.dtd">
<svg width="100%" height="100%" viewBox="0 0 1024 1024" version="1.1" xmlns="http://www.w3.org/2000/svg" xmlns:xlink="http://www.w3.org/1999/xlink" xml:space="preserve" xmlns:serif="http://www.serif.com/" style="fill-rule:evenodd;clip-rule:evenodd;stroke-linejoin:round;stroke-miterlimit:2;">
    <g transform="matrix(1,0,0,1,591.188,302.75)">
        <path d="M0,0C23.243,20.13 38.285,46.296 40.813,77.25C41.902,96.218 38.847,117.337 29.813,134.25L27.813,134.25C27.328,133.113 26.843,131.976 26.344,130.805C22.061,120.893 17.401,111.494 11.813,102.25C7.822,104.129 7.822,104.129 4.813,107.25C5.209,111.73 7.182,114.837 9.5,118.625C15.284,128.406 20.408,138.712 20.813,150.25C19.823,150.58 18.833,150.91 17.813,151.25C17.495,150.171 17.178,149.092 16.852,147.98C13.338,136.534 8.54,126.341 2.635,115.936C1.813,114.25 1.813,114.25 1.813,112.25C-2.148,115.22 -2.148,115.22 -6.188,118.25C-4.7,122.199 -2.85,125.836 -0.875,129.563C3.043,137.162 5.527,145.034 7.813,153.25C8.021,153.978 8.23,154.707 8.445,155.457C8.856,157.464 8.876,159.267 8.813,161.313C8.605,165.154 8.605,165.154 9.813,168.25C10.427,176.182 10.985,183.788 5.813,190.25C-9.523,207.53 -36.671,208.201 -58.063,210.75C-91.147,213.237 -91.147,213.237 -120.188,227.25C-122.471,230.109 -122.471,230.109 -122.313,233.563C-120.969,237.966 -119.68,239.341 -115.922,241.84C-92.34,254.001 -61.741,253.079 -35.84,254.93C62.076,261.972 62.076,261.972 91.816,294.438C100.027,304.369 103.455,314.529 102.813,327.25C100.514,342.831 90.374,355.518 78.32,364.979C55.105,382.162 26.963,391.122 -0.021,400.397C-66.014,419.949 -66.014,419.949 -115.188,464.25C-116.838,463.92 -118.488,463.59 -120.188,463.25C-119.289,453.843 -111.549,448.227 -104.625,442.5C-102.818,441.076 -101.006,439.659 -99.188,438.25C-98.567,437.741 -97.947,437.232 -97.309,436.707C-71.626,416.196 -38.092,405.936 -7.5,395.375C50.067,378.09 50.067,378.09 91.813,338.25C92.155,337.614 92.498,336.979 92.852,336.324C96.676,327.978 95.903,317.055 92.91,308.551C84.979,291.927 67.003,282.702 50.512,276.555C44.668,274.494 38.83,272.729 32.813,271.25C32.154,271.088 31.495,270.926 30.816,270.759C3.078,264.134 -26.076,262.772 -54.426,260.732C-111.067,256.563 -111.067,256.563 -125.699,242.996C-129.094,239.013 -129.643,235.603 -129.492,230.488C-128.793,225.35 -125.516,222.33 -121.688,219.188C-104.539,207.114 -81.618,206.054 -61.5,203.688C-57.818,203.251 -54.135,202.811 -50.454,202.363C-48.182,202.086 -45.909,201.817 -43.636,201.555C-28.774,199.754 -10.455,197.153 0.25,185.625C5.401,177.795 4.711,163.827 3.23,154.867C1.428,146.396 -1.967,138.499 -5.602,130.676C-6.89,127.892 -8.083,125.11 -9.188,122.25C-11.828,124.56 -14.467,126.87 -17.188,129.25C-16.729,130.243 -16.27,131.235 -15.797,132.258C-11.767,141.125 -8.567,149.782 -6.188,159.25C-5.99,159.91 -5.793,160.57 -5.59,161.25C-5.033,164.02 -5.094,166.678 -5.125,169.5C-5.134,170.578 -5.143,171.655 -5.152,172.766C-5.17,173.995 -5.17,173.995 -5.188,175.25C-6.508,175.58 -7.827,175.91 -9.188,176.25L-9.188,169.25C-9.808,169.224 -10.428,169.198 -11.066,169.172C-23.629,168.367 -35.087,164.743 -46.377,159.361C-49.69,157.869 -51.753,157.174 -55.371,157.805C-58.328,159.322 -60.699,161.054 -63.188,163.25C-47.595,170.199 -31.911,175.728 -15.188,179.25L-15.188,181.25C-20.708,184.01 -27.288,181.689 -32.875,180.063C-33.667,179.836 -34.46,179.61 -35.276,179.377C-43.059,177.094 -50.369,174.097 -57.668,170.566C-58.829,170.008 -59.991,169.45 -61.188,168.875C-62.239,168.352 -63.291,167.828 -64.375,167.289C-67.321,166.201 -68.357,166.029 -71.188,167.25C-73.395,168.738 -73.395,168.738 -75.188,170.25C-69.333,174.194 -63.322,177.11 -56.813,179.813C-55.931,180.186 -55.049,180.559 -54.141,180.943C-48.186,183.454 -42.195,185.869 -36.188,188.25C-36.518,188.91 -36.847,189.57 -37.188,190.25C-44.477,189.788 -50.3,187.968 -57,185.125C-58.449,184.526 -58.449,184.526 -59.928,183.915C-66.27,181.235 -72.063,178.268 -77.75,174.367C-80.971,172.891 -82.815,173.336 -86.188,174.25C-88.986,175.711 -88.986,175.711 -91.188,177.25C-82.507,183.663 -72.757,188.333 -63.188,193.25L-63.188,194.25C-82.293,194.769 -82.293,194.769 -90.25,192.688C-109.971,187.978 -132.616,194.671 -152.188,198.25C-153.41,198.472 -154.632,198.695 -155.891,198.924C-188.974,204.848 -188.974,204.848 -215.188,224.25C-219.05,230.817 -219.05,236.803 -218.188,244.25C-214.805,255.36 -206.77,261.471 -196.981,266.906C-169.113,281.519 -135.767,283.978 -105.048,287.389C-48.736,293.665 -48.736,293.665 -36.125,308.5C-33.356,312.871 -33.237,317.254 -34.188,322.25C-38.576,333.925 -51.392,339.458 -62.003,344.29C-86.035,354.851 -111.991,361.592 -137.387,367.998C-167.363,375.558 -198.369,383.468 -226.188,397.25C-226.907,397.599 -227.626,397.948 -228.367,398.307C-237.609,402.821 -245.653,407.748 -253.453,414.477C-256.188,416.25 -256.188,416.25 -259.047,416.023C-259.753,415.768 -260.46,415.513 -261.188,415.25C-260.867,412.157 -260.511,410.596 -258.359,408.293C-234.477,389.996 -205.733,379.092 -176.809,371.484C-171.401,370.062 -166.049,368.461 -160.688,366.875C-152.28,364.4 -143.846,362.061 -135.375,359.813C-121.898,356.229 -108.533,352.293 -95.188,348.25C-94.076,347.916 -92.965,347.583 -91.821,347.239C-85.544,345.337 -79.353,343.338 -73.25,340.938C-72.116,340.492 -72.116,340.492 -70.96,340.037C-54.361,333.989 -54.361,333.989 -42.039,322.258C-40.82,319.384 -40.809,317.343 -41.188,314.25C-45.234,306.709 -54.818,304.114 -62.5,301.688C-74.376,298.206 -86.738,297.026 -98.984,295.521C-106.345,294.615 -113.704,293.683 -121.063,292.75C-121.9,292.644 -122.738,292.538 -123.602,292.428C-199.067,282.828 -199.067,282.828 -220.625,256.25C-225.953,248.583 -227.272,240.472 -226.188,231.25C-223.247,220.119 -214.275,212.486 -204.75,206.793C-188.923,198.272 -171.59,194.464 -154.125,190.938C-152.872,190.681 -152.872,190.681 -151.594,190.419C-139.175,187.901 -126.813,186.308 -114.188,185.25C-115.006,184.928 -115.824,184.606 -116.667,184.274C-129.569,179.152 -140.465,172.183 -150.188,162.25C-150.966,161.469 -151.745,160.688 -152.547,159.883C-173.471,137.933 -182.064,109.264 -181.496,79.398C-180.344,48.76 -165.278,23.055 -143.48,2.172C-104.496,-33.502 -40.05,-33.962 0,0Z" style="fill:rgb(195,176,192);fill-rule:nonzero;"/>
    </g>
    <g transform="matrix(1,0,0,1,575,292)">
        <path d="M0,0C-1.234,33.928 -29.722,65.1 -53,87C-56.551,90.173 -60.207,93.122 -64,96C-64.523,96.41 -65.046,96.82 -65.584,97.242C-89.917,116.308 -126.008,137 -158,137C-167.776,107.934 -168.6,77.059 -155.009,48.961C-140.75,21.257 -117.314,0.778 -87.917,-9.158C-59.35,-18.311 -25.896,-15.815 0,0Z" style="fill:rgb(100,122,134);fill-rule:nonzero;"/>
    </g>
    <g transform="matrix(1,0,0,1,626,358)">
        <path d="M0,0L2,0C9.565,24.953 7.393,55.799 -5,79L-7,79C-7.727,77.295 -7.727,77.295 -8.469,75.555C-12.751,65.643 -17.412,56.244 -23,47C-26.99,48.879 -26.99,48.879 -30,52C-29.604,56.48 -27.63,59.587 -25.313,63.375C-19.529,73.156 -14.405,83.462 -14,95C-15.485,95.495 -15.485,95.495 -17,96C-17.317,94.921 -17.634,93.842 -17.961,92.73C-21.475,81.284 -26.273,71.091 -32.177,60.686C-33,59 -33,59 -33,57C-36.96,59.97 -36.96,59.97 -41,63C-39.513,66.949 -37.662,70.586 -35.688,74.313C-31.77,81.912 -29.285,89.784 -27,98C-26.791,98.728 -26.582,99.457 -26.367,100.207C-25.956,102.214 -25.937,104.017 -26,106.063C-26.208,109.904 -26.208,109.904 -25,113C-24.385,120.932 -23.828,128.538 -29,135C-44.335,152.28 -71.484,152.951 -92.875,155.5C-125.959,157.987 -125.959,157.987 -155,172C-157.284,174.859 -157.284,174.859 -157.125,178.313C-155.782,182.716 -154.493,184.091 -150.734,186.59C-127.152,198.751 -96.554,197.829 -70.652,199.68C27.263,206.722 27.263,206.722 57.004,239.188C65.215,249.119 68.642,259.279 68,272C65.701,287.581 55.562,300.268 43.507,309.729C20.293,326.912 -7.849,335.872 -34.833,345.147C-100.827,364.699 -100.827,364.699 -150,409C-151.65,408.67 -153.3,408.34 -155,408C-154.102,398.593 -146.362,392.977 -139.438,387.25C-137.631,385.826 -135.819,384.409 -134,383C-133.38,382.491 -132.76,381.982 -132.121,381.457C-106.439,360.946 -72.905,350.686 -42.313,340.125C15.254,322.84 15.254,322.84 57,283C57.343,282.364 57.686,281.729 58.039,281.074C61.864,272.728 61.09,261.805 58.098,253.301C50.167,236.677 32.19,227.452 15.699,221.305C9.856,219.244 4.017,217.479 -2,216C-2.659,215.838 -3.317,215.676 -3.996,215.509C-31.734,208.884 -60.889,207.522 -89.239,205.482C-145.879,201.313 -145.879,201.313 -160.512,187.746C-163.907,183.763 -164.455,180.353 -164.305,175.238C-163.605,170.1 -160.329,167.08 -156.5,163.938C-139.352,151.864 -116.43,150.804 -96.313,148.438C-92.63,148.001 -88.948,147.561 -85.267,147.113C-82.995,146.836 -80.722,146.567 -78.448,146.305C-63.587,144.504 -45.267,141.903 -34.563,130.375C-29.411,122.545 -30.101,108.577 -31.582,99.617C-33.385,91.146 -36.779,83.249 -40.414,75.426C-41.703,72.642 -42.895,69.86 -44,67C-46.64,69.31 -49.28,71.62 -52,74C-51.541,74.993 -51.082,75.985 -50.609,77.008C-46.58,85.875 -43.38,94.532 -41,104C-40.803,104.66 -40.606,105.32 -40.402,106C-39.845,108.77 -39.907,111.428 -39.938,114.25C-39.947,115.328 -39.956,116.405 -39.965,117.516C-39.982,118.745 -39.982,118.745 -40,120C-41.32,120.33 -42.64,120.66 -44,121L-44,114C-44.62,113.974 -45.24,113.948 -45.879,113.922C-58.441,113.117 -69.899,109.493 -81.19,104.111C-84.502,102.619 -86.565,101.924 -90.184,102.555C-93.141,104.072 -95.511,105.804 -98,108C-82.408,114.949 -66.724,120.478 -50,124L-50,126C-55.52,128.76 -62.1,126.439 -67.688,124.813C-68.48,124.586 -69.272,124.36 -70.089,124.127C-77.872,121.844 -85.181,118.847 -92.48,115.316C-93.642,114.758 -94.803,114.2 -96,113.625C-97.052,113.102 -98.104,112.578 -99.188,112.039C-102.133,110.951 -103.169,110.779 -106,112C-108.207,113.488 -108.207,113.488 -110,115C-104.146,118.944 -98.134,121.86 -91.625,124.563C-90.743,124.936 -89.862,125.309 -88.953,125.693C-82.998,128.204 -77.007,130.619 -71,133C-71.33,133.66 -71.66,134.32 -72,135C-79.289,134.538 -85.112,132.718 -91.813,129.875C-93.262,129.276 -93.262,129.276 -94.74,128.665C-101.083,125.985 -106.876,123.018 -112.563,119.117C-115.783,117.641 -117.628,118.086 -121,119C-123.799,120.461 -123.799,120.461 -126,122C-117.32,128.413 -107.569,133.083 -98,138L-98,139C-117.106,139.519 -117.106,139.519 -125.063,137.438C-144.783,132.728 -167.429,139.421 -187,143C-188.222,143.222 -189.444,143.445 -190.703,143.674C-223.787,149.598 -223.787,149.598 -250,169C-253.863,175.567 -253.862,181.553 -253,189C-249.618,200.11 -241.582,206.221 -231.794,211.656C-203.926,226.269 -170.58,228.728 -139.861,232.139C-83.549,238.415 -83.549,238.415 -70.938,253.25C-68.168,257.621 -68.049,262.004 -69,267C-73.388,278.675 -86.204,284.208 -96.815,289.04C-120.848,299.601 -146.804,306.342 -172.2,312.748C-202.175,320.308 -233.181,328.218 -261,342C-261.719,342.349 -262.439,342.698 -263.18,343.057C-272.421,347.571 -280.466,352.498 -288.266,359.227C-291,361 -291,361 -293.859,360.773C-294.566,360.518 -295.272,360.263 -296,360C-295.679,356.907 -295.323,355.346 -293.172,353.043C-269.289,334.746 -240.545,323.842 -211.621,316.234C-206.214,314.812 -200.861,313.211 -195.5,311.625C-187.093,309.15 -178.658,306.811 -170.188,304.563C-156.71,300.979 -143.346,297.043 -130,293C-128.889,292.666 -127.778,292.333 -126.633,291.989C-120.357,290.087 -114.166,288.088 -108.063,285.688C-106.929,285.242 -106.929,285.242 -105.772,284.787C-89.174,278.739 -89.174,278.739 -76.852,267.008C-75.633,264.134 -75.621,262.093 -76,259C-80.046,251.459 -89.63,248.864 -97.313,246.438C-109.188,242.956 -121.551,241.776 -133.796,240.271C-141.158,239.365 -148.517,238.433 -155.875,237.5C-156.713,237.394 -157.551,237.288 -158.414,237.178C-233.88,227.578 -233.88,227.578 -255.438,201C-260.765,193.333 -262.085,185.222 -261,176C-258.06,164.869 -249.087,157.236 -239.563,151.543C-223.736,143.022 -206.402,139.214 -188.938,135.688C-187.685,135.431 -187.685,135.431 -186.407,135.169C-173.987,132.651 -161.626,131.058 -149,130C-150.65,129.34 -152.3,128.68 -154,128C-150.859,125.38 -147.849,124.048 -144.004,122.688C-142.816,122.258 -141.628,121.828 -140.404,121.385C-139.777,121.16 -139.151,120.935 -138.505,120.703C-112.817,111.411 -89.241,98.215 -68,81C-67.082,80.274 -66.164,79.549 -65.219,78.801C-37.715,56.79 -16.49,31.155 0,0Z" style="fill:rgb(102,116,131);fill-rule:nonzero;"/>
    </g>
    <g transform="matrix(1,0,0,1,575,292)">
        <path d="M0,0C8.441,3.948 15.128,9.827 22,16C22.808,16.669 23.616,17.338 24.449,18.027C26,20 26,20 25.902,22.305C25.605,23.194 25.307,24.084 25,25C24.476,26.644 24.476,26.644 23.941,28.32C18.295,44.243 10.5,58.964 0.232,72.382C-0.985,73.981 -2.173,75.602 -3.359,77.223C-24.399,105.731 -52.84,127.546 -84,144C-84.619,144.332 -85.239,144.664 -85.877,145.006C-95.656,150.176 -105.912,153.862 -116.375,157.375C-117.338,157.701 -117.338,157.701 -118.32,158.033C-126.144,160.665 -133.824,162.812 -142,164C-148.16,155.833 -152.609,147.193 -157,138C-153.46,135.64 -150.153,135.109 -146.063,134.313C-108.16,126.353 -74.27,106.044 -46.519,79.451C-45.079,78.075 -43.622,76.717 -42.164,75.359C-21.672,55.748 -5.068,28.144 0,0Z" style="fill:rgb(229,194,195);fill-rule:nonzero;"/>
    </g>
    <g transform="matrix(1,0,0,1,596,465)">
        <path d="M0,0C0.33,0.66 0.66,1.32 1,2C1.99,2.33 2.98,2.66 4,3C6.14,9.419 6.318,18.1 3.563,24.375C-3.66,36.127 -16.068,40.21 -28.762,43.441C-39.951,46.103 -51.472,47.141 -62.875,48.5C-95.959,50.987 -95.959,50.987 -125,65C-127.284,67.859 -127.284,67.859 -127.125,71.313C-125.782,75.716 -124.493,77.091 -120.734,79.59C-97.152,91.751 -66.554,90.829 -40.652,92.68C57.263,99.722 57.263,99.722 87.004,132.188C95.215,142.119 98.642,152.279 98,165C95.701,180.581 85.562,193.268 73.507,202.729C50.293,219.912 22.151,228.872 -4.833,238.147C-70.827,257.699 -70.827,257.699 -120,302C-121.65,301.67 -123.3,301.34 -125,301C-124.102,291.593 -116.362,285.977 -109.438,280.25C-107.631,278.826 -105.819,277.409 -104,276C-103.38,275.491 -102.76,274.982 -102.121,274.457C-76.439,253.946 -42.905,243.686 -12.313,233.125C45.254,215.84 45.254,215.84 87,176C87.343,175.364 87.686,174.729 88.039,174.074C91.864,165.728 91.09,154.805 88.098,146.301C80.167,129.677 62.19,120.452 45.699,114.305C39.856,112.244 34.017,110.479 28,109C27.341,108.838 26.683,108.676 26.004,108.509C-1.734,101.884 -30.889,100.522 -59.239,98.482C-115.879,94.313 -115.879,94.313 -130.512,80.746C-133.907,76.763 -134.455,73.353 -134.305,68.238C-133.605,63.1 -130.329,60.08 -126.5,56.938C-109.352,44.864 -86.43,43.804 -66.313,41.438C-62.63,41.001 -58.948,40.561 -55.267,40.113C-52.995,39.836 -50.722,39.567 -48.448,39.305C-33.587,37.504 -15.267,34.903 -4.563,23.375C-1.904,19.334 -1.779,15.803 -1.5,11.063C-1.055,3.508 -1.055,3.508 0,0Z" style="fill:rgb(173,116,138);fill-rule:nonzero;"/>
    </g>
    <g transform="matrix(1,0,0,1,475,488.812)">
        <path d="M0,0C1.073,-0.014 2.145,-0.028 3.25,-0.043C6,0.188 6,0.188 9,2.188L9,4.188C9.99,4.683 9.99,4.683 11,5.188C10.384,5.252 9.768,5.317 9.134,5.384C-6.707,7.082 -22.301,9.488 -37.928,12.582C-40.725,13.133 -43.526,13.663 -46.328,14.188C-63.482,17.48 -88.278,23.009 -99,38.188C-102.863,44.754 -102.862,50.741 -102,58.188C-98.618,69.297 -90.582,75.409 -80.794,80.843C-52.926,95.457 -19.58,97.916 11.139,101.327C67.451,107.603 67.451,107.603 80.063,122.438C82.832,126.808 82.951,131.191 82,136.188C77.612,147.862 64.796,153.396 54.185,158.228C30.152,168.788 4.196,175.53 -21.2,181.935C-51.175,189.496 -82.181,197.405 -110,211.188C-110.719,211.536 -111.439,211.885 -112.18,212.245C-121.421,216.758 -129.466,221.685 -137.266,228.414C-140,230.188 -140,230.188 -142.859,229.961C-143.566,229.706 -144.272,229.45 -145,229.188C-144.679,226.094 -144.323,224.534 -142.172,222.23C-118.289,203.933 -89.545,193.029 -60.621,185.422C-55.214,183.999 -49.861,182.398 -44.5,180.813C-36.093,178.338 -27.658,175.998 -19.188,173.75C-5.71,170.167 7.654,166.231 21,162.188C22.111,161.854 23.222,161.52 24.367,161.177C30.643,159.275 36.834,157.276 42.938,154.875C43.693,154.578 44.449,154.281 45.228,153.975C61.826,147.927 61.826,147.927 74.148,136.195C75.367,133.322 75.379,131.28 75,128.188C70.954,120.646 61.37,118.051 53.688,115.625C41.812,112.143 29.449,110.963 17.204,109.459C9.842,108.552 2.483,107.62 -4.875,106.688C-5.713,106.581 -6.551,106.475 -7.414,106.366C-82.88,96.765 -82.88,96.765 -104.438,70.188C-109.765,62.521 -111.085,54.41 -110,45.188C-107.06,34.057 -98.087,26.424 -88.563,20.73C-72.556,12.113 -55.042,8.339 -37.375,4.813C-36.501,4.637 -35.628,4.462 -34.728,4.282C-23.163,1.982 -11.83,0.072 0,0Z" style="fill:rgb(172,116,136);fill-rule:nonzero;"/>
    </g>
    <g transform="matrix(1,0,0,1,464,294)">
        <path d="M0,0C0.11,1.004 0.219,2.008 0.332,3.043C1.23,10.906 2.41,18.534 4.316,26.23C4.953,28.81 5.499,31.391 6,34C6.554,33.84 7.107,33.68 7.678,33.515C31.573,28.217 62.056,36.107 83,48C83,53.305 81.464,54.19 78,58C76.884,57.481 75.767,56.961 74.617,56.426C55.492,47.791 36.931,44.235 16,44L16,47C16.843,46.948 16.843,46.948 17.703,46.895C37.238,46.265 57.618,51.177 75,60C73.386,63.402 71.414,66.103 69,69C64.649,68.439 61.099,66.737 57.16,64.922C54.8,63.914 52.546,63.328 50,63L50,66C50.626,66.205 51.253,66.41 51.898,66.621C52.716,66.891 53.533,67.16 54.375,67.438C55.187,67.704 55.999,67.971 56.836,68.246C59,69 59,69 61,70C59.799,77.505 54.875,82.756 49.328,87.531C46.83,89.107 45.813,89.421 42.938,89C41.968,88.67 40.999,88.34 40,88C40.66,89.65 41.32,91.3 42,93C40.929,93.869 39.843,94.72 38.75,95.563C37.845,96.276 37.845,96.276 36.922,97.004C35,98 35,98 33.055,97.973C23.713,93.551 16.365,78.536 11,70C10.31,68.913 9.621,67.827 8.91,66.707C-1.03,50.232 -11,28.611 -11,9C-11.66,8.67 -12.32,8.34 -13,8C-11.023,6.664 -9.043,5.331 -7.063,4C-6.499,3.618 -5.935,3.237 -5.354,2.844C-1.113,0 -1.113,0 0,0Z" style="fill:rgb(95,118,131);fill-rule:nonzero;"/>
    </g>
    <g transform="matrix(1,0,0,1,575,292)">
        <path d="M0,0C-0.445,5.273 -1.084,10.018 -3,15L-7,15C-7.205,15.615 -9.874,23.621 -11,27L-13,27C-13.309,27.949 -13.619,28.898 -13.938,29.875C-15,33 -15,33 -16,35C-19.446,34.437 -22.032,33.586 -25.063,31.875C-49.93,19.203 -75.979,16.143 -103.422,17.034C-106,17 -106,17 -107,16C-107.233,14.318 -107.413,12.629 -107.563,10.938C-107.646,10.018 -107.73,9.099 -107.816,8.152C-107.907,7.087 -107.907,7.087 -108,6C-93.475,2.895 -77.234,4.417 -62.785,7.27C-58.772,8.044 -54.822,8.492 -50.75,8.789C-49,9 -49,9 -47,10C-46.505,8.515 -46.505,8.515 -46,7C-45.01,6.34 -44.02,5.68 -43,5C-42.429,3.288 -42,1.81 -42,0C-42.401,0.445 -42.802,0.889 -43.215,1.348C-47.756,5.869 -47.756,5.869 -51.328,6.246C-55.331,5.829 -58.453,4.921 -62,3C-57,-2 -57,-2 -52,-7C-56.709,-6.058 -58.521,-4.447 -61.375,-0.813C-64.203,2.183 -65.451,2.949 -69.613,3.336C-73.082,3.189 -76.507,2.761 -79.943,2.274C-83.118,1.851 -86.305,1.654 -89.5,1.438C-91.333,1.293 -93.167,1.148 -95,1C-92.14,-1.86 -88.608,-2.777 -84.875,-4.125C-84.121,-4.402 -83.367,-4.679 -82.59,-4.965C-80.728,-5.648 -78.864,-6.325 -77,-7L-77,-11C-54.567,-21.197 -20.043,-12.241 0,0Z" style="fill:rgb(101,122,134);fill-rule:nonzero;"/>
    </g>
    <g transform="matrix(1,0,0,1,575,292)">
        <path d="M0,0C1.49,0.707 2.967,1.442 4.438,2.188C5.261,2.594 6.085,3 6.934,3.418C9,5 9,5 9.938,7.156C10.025,11.16 8.867,14.582 7.563,18.313C7.156,19.498 7.156,19.498 6.742,20.708C3.858,28.841 0.129,36.437 -4,44C-4.578,45.07 -5.155,46.14 -5.75,47.242C-9.901,54.641 -14.765,61.335 -20,68C-20.652,68.859 -21.305,69.717 -21.977,70.602C-32.368,83.881 -44.733,95.817 -58.329,105.773C-59.982,106.987 -61.612,108.225 -63.242,109.469C-86.362,126.829 -123.223,147.89 -153,147C-154.32,143.7 -155.64,140.4 -157,137C-155.439,136.66 -153.878,136.319 -152.27,135.969C-131.933,131.399 -113.388,124.788 -95,115C-94.007,114.487 -93.015,113.974 -91.992,113.445C-75.104,104.544 -60.253,92.612 -46.519,79.451C-45.079,78.075 -43.622,76.717 -42.164,75.359C-21.672,55.748 -5.068,28.144 0,0Z" style="fill:rgb(233,196,194);fill-rule:nonzero;"/>
    </g>
    <g transform="matrix(1,0,0,1,601,313)">
        <path d="M0,0C7.382,5.742 7.382,5.742 9,10C8.37,13.166 7.047,15.96 5.688,18.875C5.311,19.718 4.934,20.561 4.546,21.429C3.395,23.968 2.207,26.487 1,29C0.67,29.69 0.34,30.381 0,31.092C-7.063,45.612 -16.455,58.809 -27,71C-27.659,71.77 -28.317,72.539 -28.996,73.332C-41.091,87.118 -54.022,99.409 -69,110C-69.719,110.51 -70.438,111.02 -71.179,111.546C-94.745,128.103 -131.083,151 -161,151C-162.605,149.469 -162.605,149.469 -164.188,147.5C-164.717,146.85 -165.247,146.201 -165.793,145.531C-166.39,144.773 -166.39,144.773 -167,144C-164.698,141.698 -163.4,141.391 -160.293,140.555C-159.325,140.287 -158.357,140.019 -157.359,139.743C-156.312,139.457 -155.266,139.17 -154.188,138.875C-128.228,131.481 -103.936,120.907 -82,105C-81.355,104.536 -80.71,104.073 -80.046,103.595C-62.869,91.179 -47.091,77.766 -34,61C-33.532,60.403 -33.063,59.805 -32.581,59.19C-18.373,40.983 -7.86,21.728 0,0Z" style="fill:rgb(233,195,194);fill-rule:nonzero;"/>
    </g>
    <g transform="matrix(1,0,0,1,621,342)">
        <path d="M0,0C1.753,2.629 2.969,4.98 4.188,7.875C4.735,9.14 4.735,9.14 5.293,10.43C6.939,16.413 3.547,21.168 0.688,26.25C0.244,27.04 -0.2,27.83 -0.657,28.644C-15.034,53.744 -35.112,76.344 -58,94C-59.605,95.312 -61.209,96.624 -62.813,97.938C-87.121,117.202 -113.455,130.549 -142.499,141.074C-145.044,141.976 -145.044,141.976 -147.586,143.215C-150,144 -150,144 -151.945,143.493C-152.547,143.147 -153.149,142.801 -153.77,142.445C-154.43,142.078 -155.091,141.711 -155.771,141.332C-156.782,140.735 -156.782,140.735 -157.813,140.125C-158.505,139.734 -159.198,139.344 -159.912,138.941C-161.617,137.977 -163.31,136.991 -165,136L-165,135C-163.935,134.755 -162.87,134.51 -161.773,134.258C-130.747,126.477 -101.535,112.1 -76,93C-75.395,92.552 -74.791,92.105 -74.168,91.644C-67.59,86.761 -61.298,81.643 -55.273,76.086C-53.161,74.148 -51,72.29 -48.813,70.438C-45.513,67.56 -42.65,64.476 -39.828,61.133C-38.583,59.68 -37.299,58.258 -35.984,56.867C-20.457,40.39 -9.219,20.523 0,0Z" style="fill:rgb(197,176,192);fill-rule:nonzero;"/>
    </g>
    <g transform="matrix(1,0,0,1,626,358)">
        <path d="M0,0L2,0C9.565,24.953 7.393,55.799 -5,79L-7,79C-7.485,77.863 -7.969,76.726 -8.469,75.555C-12.751,65.643 -17.412,56.244 -23,47C-26.99,48.879 -26.99,48.879 -30,52C-29.604,56.48 -27.63,59.587 -25.313,63.375C-19.529,73.156 -14.405,83.462 -14,95C-14.99,95.33 -15.98,95.66 -17,96C-17.317,94.921 -17.634,93.842 -17.961,92.73C-21.475,81.284 -26.273,71.091 -32.177,60.686C-33,59 -33,59 -33,57C-35.64,58.98 -38.28,60.96 -41,63C-39.513,66.949 -37.662,70.586 -35.688,74.313C-31.77,81.912 -29.285,89.784 -27,98C-26.792,98.735 -26.585,99.47 -26.371,100.227C-25.762,103.136 -25.943,106.041 -26,109L-29,109C-30.765,104.969 -31.735,100.978 -32.688,96.688C-34.447,89.19 -37.184,82.399 -40.414,75.426C-41.703,72.642 -42.895,69.86 -44,67C-46.64,69.31 -49.28,71.62 -52,74C-51.67,74.846 -51.34,75.691 -51,76.563C-49.929,80.244 -50,83.182 -50,87C-49.465,89.719 -48.75,92.328 -48,95C-55.622,94.414 -63.136,92.432 -70,89C-70,87 -70,87 -68.531,85.457C-63.127,81.082 -63.127,81.082 -59.688,80.832C-57.5,81.125 -57.5,81.125 -54,82C-54.33,81.34 -54.66,80.68 -55,80C-57.025,79.348 -57.025,79.348 -59,79C-58.01,77.68 -57.02,76.36 -56,75C-56.66,74.34 -57.32,73.68 -58,73C-57.045,72.117 -56.09,71.234 -55.105,70.324C-32.384,49.264 -14.535,27.462 0,0Z" style="fill:rgb(112,121,131);fill-rule:nonzero;"/>
    </g>
    <g transform="matrix(1,0,0,1,561.191,671.621)">
        <path d="M0,0C4.07,3.103 6.524,5.606 7.371,10.879C6.71,14.99 5.895,17.608 2.809,20.379C-12.863,30.219 -29.117,31.274 -46.871,27.289C-51.055,26.142 -54.621,24.852 -58.191,22.379C-58.788,21.97 -59.385,21.562 -60,21.141C-62.609,19.002 -63.94,17.295 -64.84,14.016C-65.186,10.085 -65.031,7.482 -62.598,4.285C-47.044,-9.833 -17.699,-11.208 0,0Z" style="fill:rgb(167,190,201);fill-rule:nonzero;"/>
    </g>
    <g transform="matrix(1,0,0,1,461.938,693.812)">
        <path d="M0,0C0.773,-0.012 1.546,-0.024 2.342,-0.037C7.265,-0.05 11.351,0.598 16.063,2.188C16.917,2.459 17.772,2.731 18.652,3.012C24.677,5.227 30.151,7.927 34.063,13.188C35.019,16.74 34.609,19.788 33.262,23.238C29.385,29.54 20.839,32.596 14.043,34.492C-0.778,37.513 -18.394,36.332 -31.688,28.75C-34.673,26.615 -36.604,24.687 -37.938,21.188C-38.589,16.708 -38.352,14.828 -35.875,11C-26.85,1.548 -12.416,0.01 0,0Z" style="fill:rgb(248,235,204);fill-rule:nonzero;"/>
    </g>
    <g transform="matrix(1,0,0,1,416,351)">
        <path d="M0,0C1.353,2.651 2.588,5.32 3.742,8.063C11.387,25.878 20.854,41.901 33,57C34.705,59.31 36.357,61.645 38,64C36.593,64.728 35.174,65.431 33.75,66.125C32.961,66.519 32.172,66.914 31.359,67.32C29,68 29,68 26.898,67.375C24.688,65.774 23.414,64.124 21.875,61.875C20.443,59.726 20.443,59.726 19,58L17,58C18.376,62.014 20.343,64.723 23,68L23,70C22.01,70.495 22.01,70.495 21,71L30,71C26.444,73.37 22.976,74.133 18.875,75.063C18.113,75.239 17.351,75.415 16.567,75.597C11.386,76.766 6.303,77.614 1,78C-7.228,53.536 -10.87,24.433 0,0Z" style="fill:rgb(99,120,131);fill-rule:nonzero;"/>
    </g>
    <g transform="matrix(1,0,0,1,600.375,640.5)">
        <path d="M0,0C1.372,0.009 1.372,0.009 2.772,0.017C11.931,0.258 19.748,2.214 26.438,8.813C28.39,11.464 28.998,13.334 28.813,16.625C27.867,20.81 26.086,22.904 22.625,25.5C11.806,31.414 -2.381,34.315 -14.502,30.901C-21.429,28.299 -26.75,25.182 -30.375,18.5C-30.375,14.423 -29.813,12.188 -27.625,8.75C-20.277,1.402 -10.013,-0.073 0,0Z" style="fill:rgb(233,195,194);fill-rule:nonzero;"/>
    </g>
    <g transform="matrix(1,0,0,1,649,609)">
        <path d="M0,0C2.156,1.552 3.381,2.861 5,5C5.495,5.495 5.495,5.495 6,6C6.703,13.033 6.703,13.033 4,16.75C-4.269,22.952 -11.605,24.19 -21.75,24.25C-22.606,24.271 -23.462,24.291 -24.344,24.313C-31.836,24.358 -39.335,23.262 -45,17.938C-45.557,17.431 -46.114,16.924 -46.688,16.402C-48.608,14.35 -48.992,13.061 -49.375,10.25C-48.889,6.04 -47.086,3.73 -44,1C-31.207,-6.621 -13.344,-6.366 0,0Z" style="fill:rgb(221,189,192);fill-rule:nonzero;"/>
    </g>
    <g transform="matrix(1,0,0,1,464,294)">
        <path d="M0,0C0.11,1.004 0.219,2.008 0.332,3.043C4.167,36.807 18.789,67.154 42,92C39.743,94.335 37.719,96.187 35,98C31.935,97.912 30.971,96.972 28.773,94.805C22.283,86.877 16.452,78.675 11,70C10.31,68.913 9.621,67.827 8.91,66.707C-1.03,50.232 -11,28.611 -11,9C-11.66,8.67 -12.32,8.34 -13,8C-11.023,6.664 -9.043,5.331 -7.063,4C-6.499,3.618 -5.935,3.237 -5.354,2.844C-1.113,0 -1.113,0 0,0Z" style="fill:rgb(171,188,196);fill-rule:nonzero;"/>
    </g>
    <g transform="matrix(1,0,0,1,450,304)">
        <path d="M0,0C0.17,1.004 0.34,2.008 0.516,3.043C5.996,34.394 19.847,61.566 40.188,85.793C42,88 42,88 44,91C42.929,91.869 41.843,92.72 40.75,93.563C39.845,94.276 39.845,94.276 38.922,95.004C37,96 37,96 34.988,95.875C17.722,88.276 5.252,55.13 -2,39C-2.413,38.108 -2.825,37.216 -3.25,36.297C-6.776,28.198 -10,17.864 -10,9C-8.066,6.738 -8.066,6.738 -5.563,4.313C-4.739,3.504 -3.915,2.696 -3.066,1.863C-1,0 -1,0 0,0Z" style="fill:rgb(173,190,197);fill-rule:nonzero;"/>
    </g>
    <g transform="matrix(1,0,0,1,563,317)">
        <path d="M0,0C-1.109,3.487 -2.263,6.775 -4,10C-7.446,9.437 -10.032,8.586 -13.063,6.875C-37.93,-5.797 -63.979,-8.857 -91.422,-7.966C-94,-8 -94,-8 -95,-9C-95.233,-10.682 -95.413,-12.371 -95.563,-14.063C-95.646,-14.982 -95.73,-15.901 -95.816,-16.848C-95.907,-17.913 -95.907,-17.913 -96,-19C-64.009,-25.726 -28.304,-14.536 0,0Z" style="fill:rgb(172,188,196);fill-rule:nonzero;"/>
    </g>
    <g transform="matrix(1,0,0,1,607.371,582.781)">
        <path d="M0,0C1.629,1.219 1.629,1.219 3.629,3.219C4.066,6.531 4.066,6.531 3.629,10.219C-0.852,16.018 -6.273,18.295 -13.371,19.219C-25.144,20.008 -34.741,20.225 -44.434,12.906C-46.371,10.219 -46.371,10.219 -47.121,6.781C-46.071,1.791 -43.532,-0.065 -39.371,-2.781C-27.548,-8.837 -10.859,-7.195 0,0Z" style="fill:rgb(92,121,131);fill-rule:nonzero;"/>
    </g>
    <g transform="matrix(1,0,0,1,436,317)">
        <path d="M0,0C1.418,2.674 2.437,5.213 3.227,8.133C11.318,37.085 25.569,62.106 45,85C41.649,87.968 39.397,89.298 35,90C18.196,71.056 -8,37.659 -8,11C-6.739,9.055 -5.394,7.164 -4,5.313C-3.257,4.319 -2.515,3.325 -1.75,2.301C-1.173,1.542 -0.595,0.782 0,0Z" style="fill:rgb(172,190,197);fill-rule:nonzero;"/>
    </g>
    <g transform="matrix(1,0,0,1,626,358)">
        <path d="M0,0L2,0C8.622,21.842 6.595,43.896 0.5,65.563C0.299,66.295 0.097,67.028 -0.11,67.783C-0.719,69.816 -0.719,69.816 -2,73C-3.485,73.495 -3.485,73.495 -5,74C-5.412,72.996 -5.825,71.992 -6.25,70.957C-9.698,62.736 -13.459,55.197 -18.398,47.77C-19.986,45.025 -20.837,43.16 -21,40C-19.667,37.591 -17.922,36.016 -16,34C-12.175,35.451 -10.809,37.382 -9,41L-9,43L-6,43C-6.952,38.953 -7.535,36.572 -10.188,33.313C-12,31 -12,31 -11.813,28.813C-11.237,27.528 -10.629,26.259 -10,25C-10.124,23.498 -10.124,23.498 -10.25,21.965C-9.911,16.588 -7.719,13.122 -5,8.563C-4.523,7.736 -4.046,6.909 -3.555,6.057C-2.383,4.03 -1.198,2.012 0,0Z" style="fill:rgb(97,119,132);fill-rule:nonzero;"/>
    </g>
    <g transform="matrix(1,0,0,1,568,306)">
        <path d="M0,0C0.99,0.33 1.98,0.66 3,1C2.428,6.573 0.401,11.019 -2,16C-2.404,16.841 -2.809,17.682 -3.226,18.548C-11.897,36.22 -23.922,51.141 -37.75,65.063C-38.434,65.753 -39.119,66.443 -39.824,67.154C-53.688,80.823 -53.688,80.823 -62,81C-62.99,79.35 -63.98,77.7 -65,76L-61,76C-55.142,75.259 -51.842,72.338 -48,68C-46.049,64.774 -44.454,61.475 -43,58C-43.626,57.795 -44.253,57.59 -44.898,57.379C-45.716,57.109 -46.533,56.84 -47.375,56.563C-48.187,56.296 -48.999,56.029 -49.836,55.754C-52,55 -52,55 -54,54L-54,51C-48.713,51.45 -44.831,52.827 -40.113,55.258C-37.55,56.158 -36.476,56.093 -34,55C-32.457,53.394 -32.457,53.394 -31.25,51.438C-30.822,50.797 -30.394,50.156 -29.953,49.496C-29.639,49.002 -29.324,48.509 -29,48C-30.196,47.608 -31.392,47.216 -32.625,46.813C-35.497,45.867 -38.329,44.874 -41.152,43.793C-56.424,38.003 -71.855,36.406 -88,35L-88,32C-65.409,30.961 -46.44,35.488 -26,45C-25.154,44.072 -22.724,41.404 -21.996,40.605C-21.667,40.076 -21.339,39.546 -21,39C-21.718,35.674 -21.718,35.674 -25.184,34.387C-26.596,33.807 -28.015,33.242 -29.438,32.688C-30.185,32.388 -30.933,32.088 -31.703,31.779C-40.015,28.501 -48.491,25.717 -57,23C-55,21 -55,21 -51.887,20.711C-47.472,21.039 -43.932,22.09 -39.813,23.625C-39.075,23.891 -38.338,24.158 -37.578,24.432C-31.901,26.535 -26.56,29.035 -21.223,31.898C-19.115,33.148 -19.115,33.148 -17,33C-15.35,30.03 -13.7,27.06 -12,24C-12.838,23.734 -13.676,23.469 -14.539,23.195C-18.23,21.921 -21.799,20.435 -25.375,18.875C-26.016,18.598 -26.656,18.321 -27.316,18.035C-28.879,17.359 -30.439,16.68 -32,16C-31.34,14.68 -30.68,13.36 -30,12C-22.957,14.908 -15.943,17.861 -9,21C-8.536,19.577 -8.536,19.577 -8.063,18.125C-7,15 -7,15 -6,13L-4,13C-3.867,12.438 -3.734,11.876 -3.598,11.297C-2.976,8.906 -2.229,6.59 -1.438,4.25C-1.168,3.451 -0.899,2.652 -0.621,1.828C-0.416,1.225 -0.211,0.622 0,0Z" style="fill:rgb(100,118,130);fill-rule:nonzero;"/>
    </g>
    <g transform="matrix(1,0,0,1,470,312)">
        <path d="M0,0C15.628,-0.326 30.708,-0.49 46,3C46.946,3.205 47.892,3.41 48.867,3.621C61.552,6.725 74.601,11.641 86,18C84.844,21.912 83.645,24.875 81,28C77.927,26.803 74.9,25.525 71.883,24.195C53.535,16.169 35.845,11.899 15.75,11.375C13.9,11.317 13.9,11.317 12.012,11.258C9.008,11.165 6.004,11.079 3,11C2.496,9.543 1.997,8.084 1.5,6.625C1.222,5.813 0.943,5.001 0.656,4.164C0,2 0,2 0,0Z" style="fill:rgb(172,188,196);fill-rule:nonzero;"/>
    </g>
    <g transform="matrix(1,0,0,1,598,310)">
        <path d="M0,0C0.99,0.66 1.98,1.32 3,2C-0.199,20.904 -11.282,39.371 -22.768,54.382C-23.985,55.981 -25.173,57.602 -26.359,59.223C-47.399,87.731 -75.84,109.546 -107,126C-107.929,126.498 -107.929,126.498 -108.877,127.006C-118.656,132.176 -128.912,135.862 -139.375,139.375C-140.017,139.592 -140.659,139.81 -141.32,140.033C-149.144,142.665 -156.824,144.812 -165,146C-165.33,144.68 -165.66,143.36 -166,142C-164.378,141.615 -164.378,141.615 -162.723,141.223C-119.307,130.567 -81.531,109.592 -49.513,78.466C-48.249,77.241 -46.967,76.036 -45.68,74.836C-25.075,55.232 -9.512,27.955 -1,1C-0.67,0.67 -0.34,0.34 0,0Z" style="fill:rgb(112,120,130);fill-rule:nonzero;"/>
    </g>
    <g transform="matrix(1,0,0,1,585,299)">
        <path d="M0,0C0.99,0.33 1.98,0.66 3,1C2.642,8.215 1.181,14.175 -1.625,20.813C-1.988,21.687 -2.35,22.562 -2.724,23.463C-15.215,53.088 -36.53,79.444 -62,99C-62.833,99.64 -62.833,99.64 -63.683,100.292C-89.506,119.989 -127.357,144 -161,144C-161.33,142.68 -161.66,141.36 -162,140C-161.388,139.86 -160.776,139.72 -160.146,139.576C-124.613,131.346 -93.608,117.754 -65,95C-64.435,94.552 -63.869,94.104 -63.287,93.642C-32.955,69.363 -10.447,37.627 0,0Z" style="fill:rgb(112,120,132);fill-rule:nonzero;"/>
    </g>
    <g transform="matrix(1,0,0,1,425,332)">
        <path d="M0,0L1,0C1.196,0.718 1.392,1.436 1.594,2.176C9.1,28.156 22.157,51.201 39.406,71.914C40.906,73.876 41.985,75.756 43,78C41.761,78.728 40.508,79.432 39.25,80.125C38.554,80.519 37.858,80.914 37.141,81.32C35,82 35,82 33.082,81.523C30.016,79.28 27.772,76.461 25.438,73.5C24.914,72.84 24.391,72.18 23.853,71.5C17.861,63.766 12.846,55.486 8,47C7.618,46.334 7.237,45.669 6.843,44.983C1.209,35.061 -3.387,24.838 -7,14C-5.937,11.511 -4.83,9.193 -3.563,6.813C-3.224,6.158 -2.886,5.504 -2.537,4.83C-1.7,3.215 -0.851,1.607 0,0Z" style="fill:rgb(170,188,195);fill-rule:nonzero;"/>
    </g>
    <g transform="matrix(1,0,0,1,609,323)">
        <path d="M0,0C0.99,0.66 1.98,1.32 3,2C-0.077,30.516 -26.801,59.452 -46,79C-46.907,79.927 -46.907,79.927 -47.832,80.872C-52.904,86.007 -58.325,90.544 -64,95C-64.852,95.675 -64.852,95.675 -65.722,96.364C-91.99,117.047 -121.324,131.845 -153.25,141.688C-154.473,142.072 -154.473,142.072 -155.72,142.463C-159.822,143.666 -162.796,144.387 -167,143C-166.67,142.01 -166.34,141.02 -166,140C-163.578,139.078 -163.578,139.078 -160.25,138.25C-107.81,124.132 -59.459,94.106 -27,50C-26.368,49.152 -25.737,48.304 -25.086,47.43C-14.528,32.823 -6.164,16.921 0,0Z" style="fill:rgb(107,118,131);fill-rule:nonzero;"/>
    </g>
    <g transform="matrix(1,0,0,1,619,339)">
        <path d="M0,0C0.99,0.495 0.99,0.495 2,1C1.561,7.478 -0.824,12.267 -3.875,17.938C-4.365,18.858 -4.854,19.779 -5.359,20.728C-14.061,36.783 -25.057,50.902 -37.465,64.242C-39.44,66.391 -41.334,68.56 -43.188,70.813C-45.827,73.935 -48.775,76.558 -51.891,79.199C-53.278,80.384 -54.644,81.594 -55.984,82.832C-62.866,89.183 -70.364,94.604 -78,100C-78.59,100.42 -79.18,100.841 -79.789,101.274C-100.307,115.789 -122.678,126.056 -146.25,134.5C-147.697,135.026 -147.697,135.026 -149.174,135.563C-154.337,137.361 -158.529,138.423 -164,138L-164,135C-163.142,134.735 -162.283,134.47 -161.399,134.197C-122.566,122.069 -88.905,104.665 -58,78C-57.27,77.384 -56.541,76.768 -55.789,76.133C-46.197,67.95 -37.775,58.909 -30,49C-29.221,48.05 -28.443,47.1 -27.641,46.121C-16.364,32.062 -7.712,16.24 0,0Z" style="fill:rgb(105,120,137);fill-rule:nonzero;"/>
    </g>
    <g transform="matrix(1,0,0,1,474,327)">
        <path d="M0,0C25.521,-0.753 50.395,2.164 73,15C73,20.305 71.464,21.19 68,25C66.884,24.481 65.767,23.961 64.617,23.426C44.751,14.455 25.723,11.219 4,11C2.68,7.37 1.36,3.74 0,0Z" style="fill:rgb(170,187,195);fill-rule:nonzero;"/>
    </g>
    <g transform="matrix(1,0,0,1,416,351)">
        <path d="M0,0C1.353,2.651 2.588,5.32 3.742,8.063C11.387,25.878 20.854,41.901 33,57C34.705,59.31 36.357,61.645 38,64C36.593,64.728 35.174,65.431 33.75,66.125C32.961,66.519 32.172,66.914 31.359,67.32C29,68 29,68 27.028,67.255C24.838,65.9 23.705,64.674 22.188,62.605C21.675,61.907 21.162,61.209 20.634,60.489C20.095,59.73 19.556,58.97 19,58.188C18.436,57.401 17.872,56.614 17.292,55.804C-3,26.913 -3,26.913 -3,19C-3.66,18.67 -4.32,18.34 -5,18C-4.355,15.562 -3.709,13.125 -3.063,10.688C-2.88,9.997 -2.698,9.307 -2.51,8.596C-1.741,5.701 -0.947,2.842 0,0Z" style="fill:rgb(173,191,198);fill-rule:nonzero;"/>
    </g>
    <g transform="matrix(1,0,0,1,453,551)">
        <path d="M0,0C2,2 2,2 2.5,4.813C1.932,8.432 0.808,9.636 -2.004,11.922C-9.384,15.908 -17.862,15.855 -26,15C-29.663,13.782 -32.883,12.286 -36,10C-37.437,7.125 -37.382,5.181 -37,2C-27.836,-7.703 -10.865,-5.607 0,0Z" style="fill:rgb(93,118,128);fill-rule:nonzero;"/>
    </g>
    <g transform="matrix(1,0,0,1,480,341)">
        <path d="M0,0C19.964,-1.236 41.251,3.991 59,13C57.386,16.402 55.414,19.103 53,22C49.07,21.35 45.677,20.142 42,18.625C34.047,15.531 26.131,13.207 17.578,12.691C5.998,11.936 5.998,11.936 2.809,8.945C1.141,5.972 0,3.435 0,0Z" style="fill:rgb(168,186,194);fill-rule:nonzero;"/>
    </g>
    <g transform="matrix(1,0,0,1,546,462)">
        <path d="M0,0C11.857,4.512 23.525,7.672 36,10C36.495,13.96 36.495,13.96 37,18C31.861,20.844 28.915,21.287 23.238,19.842C22.417,19.605 21.596,19.369 20.75,19.125C19.884,18.891 19.018,18.657 18.125,18.416C5.368,14.857 -7.404,10.469 -19,4C-17.356,2.638 -15.685,1.31 -14,0C-13.258,-0.639 -12.515,-1.279 -11.75,-1.938C-7.405,-3.616 -4.111,-1.649 0,0Z" style="fill:rgb(229,197,196);fill-rule:nonzero;"/>
    </g>
    <g transform="matrix(1,0,0,1,582,425)">
        <path d="M0,0C14.893,28.124 14.893,28.124 14,44C13.156,46.293 13.156,46.293 12,48C9.563,49.125 9.563,49.125 7,50C6.01,50.66 5.02,51.32 4,52C3.914,51.114 3.827,50.229 3.738,49.316C2.025,34.209 -2.128,20.578 -9,7C-7.881,5.827 -6.755,4.662 -5.625,3.5C-4.685,2.525 -4.685,2.525 -3.727,1.531C-2,0 -2,0 0,0Z" style="fill:rgb(234,198,197);fill-rule:nonzero;"/>
    </g>
    <g transform="matrix(1,0,0,1,593,415)">
        <path d="M0,0C15.266,27.41 15.266,27.41 17,39C15.848,42.776 14.048,44.599 11,47C9.657,48.324 8.322,49.655 7,51C6.792,49.898 6.585,48.796 6.371,47.66C3.819,34.833 0.238,22.174 -7,11.125C-7.66,10.094 -8.32,9.063 -9,8C-7.709,4.128 -4.409,0 0,0Z" style="fill:rgb(232,197,195);fill-rule:nonzero;"/>
    </g>
    <g transform="matrix(1,0,0,1,523.172,468.141)">
        <path d="M0,0C3.968,1.206 7.634,2.928 11.391,4.672C23.571,10.187 35.856,13.764 48.828,16.859C44.575,21.113 38.824,23.556 32.828,23.859C25.42,22.568 18.566,19.069 11.828,15.859C11.023,15.489 10.218,15.119 9.389,14.738C-3.986,8.577 -3.986,8.577 -8.172,3.859C-2.898,-0.188 -2.898,-0.188 0,0Z" style="fill:rgb(222,190,195);fill-rule:nonzero;"/>
    </g>
    <g transform="matrix(1,0,0,1,601,404)">
        <path d="M0,0C3.441,1.147 3.633,1.586 5.305,4.613C5.929,5.736 5.929,5.736 6.567,6.881C6.999,7.683 7.43,8.486 7.875,9.313C8.318,10.124 8.762,10.935 9.218,11.771C18,28.076 18,28.076 18,33C18.66,33.33 19.32,33.66 20,34C17.36,38.29 14.72,42.58 12,47C10.457,43.915 9.24,40.958 8.097,37.719C4.5,27.594 -0.027,17.96 -6,9C-5.89,5.699 -4.737,4.718 -2.438,2.25C-1.633,1.508 -0.829,0.765 0,0Z" style="fill:rgb(230,194,192);fill-rule:nonzero;"/>
    </g>
    <g transform="matrix(1,0,0,1,513,476)">
        <path d="M0,0C2.402,1.313 2.402,1.313 4.938,3C11.966,7.297 19.472,10.088 27.166,12.979C28.133,13.343 29.101,13.707 30.098,14.082C30.969,14.404 31.841,14.726 32.739,15.058C35,16 35,16 38,18C35.105,18.505 32.209,19.004 29.313,19.5C28.496,19.643 27.679,19.786 26.838,19.934C26.042,20.069 25.246,20.204 24.426,20.344C23.698,20.469 22.97,20.595 22.22,20.725C17.721,21.283 14.71,21.181 10.672,19.023C9.876,18.603 9.08,18.182 8.259,17.748C7.431,17.295 6.603,16.842 5.75,16.375C4.903,15.919 4.055,15.464 3.182,14.994C-12.176,6.648 -12.176,6.648 -14,3C-12.803,2.292 -11.592,1.61 -10.375,0.938C-9.702,0.555 -9.029,0.172 -8.336,-0.223C-5.171,-1.276 -3.205,-0.854 0,0Z" style="fill:rgb(209,187,197);fill-rule:nonzero;"/>
    </g>
    <g transform="matrix(1,0,0,1,502.812,569.938)">
        <path d="M0,0C3.188,2.063 3.188,2.063 4.188,3.063C4.563,5.375 4.563,5.375 4.188,8.063C-1.871,13.802 -7.643,13.544 -15.566,13.43C-20.81,13.161 -23.826,11.455 -27.813,8.063C-27.813,5.313 -27.813,5.313 -26.813,2.063C-19.321,-3.52 -8.407,-4.135 0,0Z" style="fill:rgb(218,172,177);fill-rule:nonzero;"/>
    </g>
    <g transform="matrix(1,0,0,1,561,452)">
        <path d="M0,0C1.493,0.541 2.993,1.062 4.5,1.563C5.233,1.813 5.967,2.063 6.723,2.32C9.821,3.245 12.959,3.787 16.152,4.277C18,5 18,5 19.246,6.832C20.317,9.912 20.124,12.769 20,16C7.037,15.09 -5.068,10.91 -17,6C-17,2 -17,2 -15.566,0.41C-9.485,-3.679 -6.442,-2.918 0,0Z" style="fill:rgb(203,179,191);fill-rule:nonzero;"/>
    </g>
    <g transform="matrix(1,0,0,1,498,482)">
        <path d="M0,0C0.99,-0.33 1.98,-0.66 3,-1C5.233,0.084 7.267,1.208 9.375,2.5C10.624,3.241 11.874,3.981 13.125,4.719C13.763,5.098 14.401,5.477 15.059,5.867C18.123,7.655 21.245,9.331 24.375,11C25.455,11.578 26.535,12.155 27.648,12.75C28.424,13.163 29.2,13.575 30,14L30,15C19.544,15.397 9.584,15.322 -0.688,13.125C-1.506,12.951 -2.325,12.778 -3.169,12.599C-5.133,12.144 -7.07,11.582 -9,11C-9.33,10.34 -9.66,9.68 -10,9C-11.644,8.278 -13.311,7.606 -15,7C-14.438,4.688 -14.438,4.688 -13,2C-8.201,-0.769 -5.334,-1.212 0,0Z" style="fill:rgb(106,124,136);fill-rule:nonzero;"/>
    </g>
    <g transform="matrix(1,0,0,1,610,392)">
        <path d="M0,0C3.755,1.461 5.063,3.247 7.016,6.719C7.544,7.651 8.073,8.583 8.617,9.543C9.156,10.519 9.695,11.495 10.25,12.5C10.804,13.476 11.359,14.452 11.93,15.457C16,22.705 16,22.705 16,25C16.66,25.33 17.32,25.66 18,26C17.411,28.15 16.803,30.295 16.188,32.438C15.683,34.23 15.683,34.23 15.168,36.059C14.59,37.515 14.59,37.515 14,39C12.515,39.495 12.515,39.495 11,40C10.588,38.996 10.175,37.992 9.75,36.957C6.302,28.736 2.541,21.197 -2.398,13.77C-3.986,11.025 -4.837,9.16 -5,6C-3.667,3.591 -1.922,2.016 0,0Z" style="fill:rgb(203,179,194);fill-rule:nonzero;"/>
    </g>
    <g transform="matrix(1,0,0,1,616,377)">
        <path d="M0,0L1,0C1.25,5.625 1.25,5.625 -1,9C-0.792,12.013 0.3,13.428 2.063,15.938C4.053,19.084 4.425,20.386 4,24L1,24C-0.387,22.25 -0.387,22.25 -1.688,20C-2.124,19.258 -2.561,18.515 -3.012,17.75C-3.501,16.884 -3.501,16.884 -4,16C-7.44,17.147 -8.266,17.879 -10,21C-9.59,24.716 -8.462,27.207 -6.438,30.313C-3.624,34.854 -1.104,39.489 1.313,44.25C1.662,44.923 2.011,45.597 2.371,46.29C4.323,50.176 5.655,53.597 6,58C5.67,58.66 5.34,59.32 5,60L3,60C2.515,58.863 2.031,57.726 1.531,56.555C-2.751,46.643 -7.412,37.244 -13,28C-13.928,28.464 -17.625,30.313 -19,31C-19.66,29.68 -20.32,28.36 -21,27C-20.478,26.464 -19.956,25.927 -19.418,25.375C-13.235,18.792 -8.203,11.737 -3.188,4.246C-1,1 -1,1 0,0Z" style="fill:rgb(108,119,133);fill-rule:nonzero;"/>
    </g>
    <g transform="matrix(1,0,0,1,430.434,523.895)">
        <path d="M0,0C1.897,0.957 3.739,2.022 5.566,3.105L5.566,9.105C-1.012,12.886 -7.002,12.94 -14.434,12.105C-17.061,11.048 -18.351,10.066 -20.434,8.105C-20.099,5.012 -19.874,3.517 -17.559,1.355C-12.287,-1.745 -5.726,-2.105 0,0Z" style="fill:rgb(160,186,195);fill-rule:nonzero;"/>
    </g>
    <g transform="matrix(1,0,0,1,520.74,284.721)">
        <path d="M0,0C0.746,0.092 1.492,0.184 2.26,0.279C1.109,3.732 -0.061,4.66 -2.802,6.967C-3.903,7.9 -3.903,7.9 -5.025,8.853C-5.591,9.324 -6.157,9.794 -6.74,10.279C-0.842,12.162 -0.842,12.162 5.26,12.279C7.564,10.79 7.564,10.79 9.573,8.779C10.27,8.129 10.967,7.48 11.686,6.81C12.205,6.305 12.725,5.8 13.26,5.279C13.92,5.609 14.58,5.939 15.26,6.279C14.579,7.145 14.579,7.145 13.885,8.029C12.238,10.173 12.238,10.173 11.26,12.342C10.065,14.657 9.426,15.78 7.26,17.279C4.512,17.222 2.081,17.005 -0.615,16.592C-1.381,16.489 -2.147,16.385 -2.936,16.279C-7.323,15.678 -11.686,14.955 -16.052,14.217C-24.875,12.787 -33.822,12.617 -42.74,12.279C-42.41,11.289 -42.08,10.299 -41.74,9.279C-40.448,9.35 -40.448,9.35 -39.129,9.422C-35.892,9.576 -32.657,9.689 -29.417,9.773C-28.023,9.818 -26.629,9.88 -25.236,9.958C-16.629,10.554 -16.629,10.554 -8.935,7.236C-6.565,4.813 -6.565,4.813 -4.65,2.228C-2.74,0.279 -2.74,0.279 0,0Z" style="fill:rgb(97,121,132);fill-rule:nonzero;"/>
    </g>
    <g transform="matrix(1,0,0,1,511.812,283.938)">
        <path d="M0,0C0.693,0.005 1.386,0.009 2.1,0.014C3.796,0.025 5.492,0.043 7.188,0.063C6.273,1.148 5.356,2.231 4.438,3.313C3.672,4.217 3.672,4.217 2.891,5.141C2.329,5.775 1.767,6.409 1.188,7.063C0.614,7.804 0.04,8.545 -0.551,9.309C-3.742,11.783 -6.441,11.309 -10.25,10.875C-11.3,10.781 -11.3,10.781 -12.371,10.686C-13.812,10.556 -15.252,10.419 -16.691,10.272C-19.894,9.955 -23.103,9.733 -26.313,9.5C-28.146,9.355 -29.979,9.21 -31.813,9.063C-29.771,7.021 -28.727,6.519 -26.074,5.59C-25.336,5.33 -24.598,5.07 -23.838,4.803C-23.066,4.538 -22.295,4.273 -21.5,4C-20.74,3.731 -19.98,3.462 -19.197,3.186C-12.641,0.901 -6.979,-0.087 0,0Z" style="fill:rgb(180,196,203);fill-rule:nonzero;"/>
    </g>
    <g transform="matrix(1,0,0,1,546.121,573.719)">
        <path d="M0,0C1.629,0.969 1.629,0.969 3.879,3.281C4.254,6.031 4.254,6.031 3.879,8.281C-1.671,11.981 -7.591,12.178 -14.121,11.281C-18.84,8.984 -18.84,8.984 -20.121,5.781C-20.121,3.281 -20.121,3.281 -18.871,1.531C-13.897,-2.022 -5.64,-1.911 0,0Z" style="fill:rgb(248,237,205);fill-rule:nonzero;"/>
    </g>
    <g transform="matrix(1,0,0,1,551,444)">
        <path d="M0,0C0.66,0.33 1.32,0.66 2,1C2,3.188 2,3.188 1,6C-1.014,7.499 -3.077,8.695 -5.285,9.887C-5.851,10.254 -6.417,10.621 -7,11L-7,13C5.19,17.811 17.127,21.524 30,24C30.495,22.515 30.495,22.515 31,21C30.67,22.98 30.34,24.96 30,27C25.17,28.52 21.244,27.223 16.438,26.063C15.518,25.844 14.599,25.625 13.652,25.4C3.988,22.963 -4.969,19.159 -14,15C-14.367,12.762 -14.367,12.762 -14,10C-11.445,7.832 -11.445,7.832 -8.125,5.813C-3.813,3.221 -3.813,3.221 0,0Z" style="fill:rgb(112,124,139);fill-rule:nonzero;"/>
    </g>
    <g transform="matrix(1,0,0,1,559,290)">
        <path d="M0,0L0,2C-1.661,3.174 -3.382,4.264 -5.125,5.313C-8.513,7.362 -11.37,9.229 -14.063,12.125C-17,14 -17,14 -19.512,13.707C-23.296,12.644 -26.191,11.809 -29,9C-26.392,6.593 -23.724,4.275 -21,2C-20.353,1.456 -19.706,0.912 -19.039,0.352C-12.48,-4.494 -7.241,-2.414 0,0Z" style="fill:rgb(177,193,200);fill-rule:nonzero;"/>
    </g>
    <g transform="matrix(1,0,0,1,514,361)">
        <path d="M0,0C3.945,0.606 7.34,1.385 11,3C9.773,10.669 4.745,15.534 -0.684,20.594C-3,22 -3,22 -5.785,21.719C-6.516,21.482 -7.247,21.244 -8,21C-7.494,15.466 -6.044,11.44 -3.438,6.563C-3.108,5.926 -2.779,5.29 -2.439,4.635C-1.635,3.085 -0.819,1.542 0,0Z" style="fill:rgb(168,187,195);fill-rule:nonzero;"/>
    </g>
    <g transform="matrix(1,0,0,1,565.219,293.211)">
        <path d="M0,0C0.588,0.26 1.176,0.521 1.781,0.789C2.771,1.119 3.761,1.449 4.781,1.789C4.587,6.121 4.398,8.174 1.27,11.293C0.222,11.972 -0.826,12.652 -1.906,13.352C-2.941,14.054 -3.976,14.757 -5.043,15.48C-8.219,16.789 -8.219,16.789 -11.434,16.074C-12.353,15.65 -13.272,15.226 -14.219,14.789C-15.168,14.418 -16.116,14.047 -17.094,13.664C-18.146,13.231 -18.146,13.231 -19.219,12.789C-16.268,8.666 -13.011,6.013 -8.719,3.414C-8.15,3.047 -7.582,2.679 -6.996,2.301C-2.818,-0.268 -2.818,-0.268 0,0Z" style="fill:rgb(173,190,198);fill-rule:nonzero;"/>
    </g>
    <g transform="matrix(1,0,0,1,535,284)">
        <path d="M0,0C1.011,0.186 2.021,0.371 3.063,0.563C3.702,0.707 4.341,0.851 5,1C3.905,2.13 2.803,3.253 1.676,4.352C0.417,5.59 -0.81,6.862 -2.02,8.148C-7.688,13.807 -7.688,13.807 -11.441,14.359C-15.408,13.967 -18.491,12.877 -22,11C-20.324,9.28 -18.635,7.577 -16.922,5.895C-15.761,4.75 -14.619,3.586 -13.516,2.387C-9.143,-1.973 -5.556,-1.215 0,0Z" style="fill:rgb(173,190,198);fill-rule:nonzero;"/>
    </g>
    <g transform="matrix(1,0,0,1,420,395)">
        <path d="M0,0L2,0C5.178,3.257 7.986,6.833 8.016,11.508C7.486,14.068 6.784,16.507 6,19C5.61,20.705 5.235,22.413 4.875,24.125C4.586,25.404 4.298,26.683 4,28L1,28C0.322,25.816 -0.342,23.628 -1,21.438C-1.371,20.219 -1.743,19.001 -2.125,17.746C-3.76,10.746 -3.069,6.266 0,0Z" style="fill:rgb(177,194,202);fill-rule:nonzero;"/>
    </g>
    <g transform="matrix(1,0,0,1,571.016,439.055)">
        <path d="M0,0C3.159,1.505 4.092,3.704 5.344,6.867C6.068,9.215 6.679,11.504 6.984,13.945C-0.638,13.359 -8.152,11.377 -15.016,7.945C-15.016,5.945 -15.016,5.945 -13.582,4.402C-9.112,0.734 -5.846,-1.109 0,0Z" style="fill:rgb(198,176,192);fill-rule:nonzero;"/>
    </g>
    <g transform="matrix(1,0,0,1,514,472)">
        <path d="M0,0C0.478,0.329 0.956,0.657 1.449,0.996C13.608,8.826 27.611,13.69 41,19C40.67,19.66 40.34,20.32 40,21C32.711,20.538 26.887,18.72 20.188,15.875C19.226,15.475 18.264,15.075 17.273,14.662C10.153,11.639 3.478,8.25 -3,4C-2.67,3.34 -2.34,2.68 -2,2L0,2L0,0Z" style="fill:rgb(109,121,133);fill-rule:nonzero;"/>
    </g>
    <g transform="matrix(1,0,0,1,618,379)">
        <path d="M0,0C3.916,1.305 6.016,3.467 8,7C8.622,9.95 8.569,12.748 8.438,15.75C8.432,16.517 8.426,17.284 8.42,18.074C8.296,23.704 8.296,23.704 6,26C5.529,25.18 5.059,24.36 4.574,23.516C3.952,22.438 3.329,21.36 2.688,20.25C2.073,19.183 1.458,18.115 0.824,17.016C-0.89,14.059 -0.89,14.059 -2.738,11.727C-4,10 -4,10 -3.875,8.125C-2.727,5.337 -1.396,2.671 0,0Z" style="fill:rgb(180,189,193);fill-rule:nonzero;"/>
    </g>
    <g transform="matrix(1,0,0,1,500,357)">
        <path d="M0,0C1.863,0.253 3.717,0.577 5.563,0.938C6.574,1.132 7.586,1.327 8.629,1.527C9.803,1.761 9.803,1.761 11,2C9.511,5.896 7.756,9.591 5.875,13.313C5.336,14.381 4.797,15.45 4.242,16.551C3.627,17.763 3.627,17.763 3,19C-2.628,14.809 -2.628,14.809 -4.063,11.688C-3.973,7.825 -2.83,2.83 0,0Z" style="fill:rgb(170,188,197);fill-rule:nonzero;"/>
    </g>
    <g transform="matrix(1,0,0,1,585,299)">
        <path d="M0,0C0.99,0.33 1.98,0.66 3,1C2.659,8.362 1.065,14.367 -1.813,21.125C-2.156,21.967 -2.5,22.809 -2.854,23.676C-5.015,28.907 -7.413,33.966 -10,39L-14,39C-13.346,34.123 -11.315,30.092 -9.25,25.688C-5.41,17.311 -2.51,8.856 0,0Z" style="fill:rgb(113,119,128);fill-rule:nonzero;"/>
    </g>
    <g transform="matrix(1,0,0,1,456,509)">
        <path d="M0,0C3.563,1.5 3.563,1.5 6,3C5.688,4.875 5.688,4.875 5,7C1.538,9.308 0.082,9.27 -4,9.25C-5.052,9.255 -6.104,9.26 -7.188,9.266C-10,9 -10,9 -13,7C-12.688,4.625 -12.688,4.625 -12,2C-7.959,-0.694 -4.746,-0.557 0,0Z" style="fill:rgb(225,189,188);fill-rule:nonzero;"/>
    </g>
    <g transform="matrix(1,0,0,1,569,300)">
        <path d="M0,0L2,0C2.188,2.375 2.188,2.375 2,5C1.01,5.66 0.02,6.32 -1,7C-1.938,9.079 -1.938,9.079 -2.563,11.438C-3.453,14.49 -4.195,16.293 -6,19L-6,17C-6.866,16.732 -7.733,16.464 -8.625,16.188C-11.918,15.029 -14.911,13.618 -18,12C-15.969,10.345 -14.201,9.078 -11.75,8.125C-7.592,6.424 -2.074,4.147 0,0Z" style="fill:rgb(104,124,136);fill-rule:nonzero;"/>
    </g>
    <g transform="matrix(1,0,0,1,532,420)">
        <path d="M0,0C0.99,0.495 0.99,0.495 2,1C-16.958,16.123 -40.461,29.648 -64,36C-63.67,35.01 -63.34,34.02 -63,33C-61.25,32.191 -61.25,32.191 -59,31.563C-50.377,29.114 -42.319,24.776 -34.25,20.938C-33.331,20.504 -32.412,20.07 -31.465,19.623C-27.173,17.583 -23.076,15.447 -19,13L-17,13L-17,11C-16.01,10.67 -15.02,10.34 -14,10C-13.67,9.34 -13.34,8.68 -13,8C-10.438,7.375 -10.438,7.375 -8,7L-8,5L-5,5L-5,3C-2.625,1.313 -2.625,1.313 0,0Z" style="fill:rgb(218,198,201);fill-rule:nonzero;"/>
    </g>
    <g transform="matrix(1,0,0,1,602,425)">
        <path d="M0,0C2.854,3.392 4.503,7.107 6.125,11.188C6.391,11.851 6.656,12.514 6.93,13.198C8.844,18.164 9.812,22.652 10,28C9.01,28.33 8.02,28.66 7,29C6.602,27.782 6.203,26.564 5.793,25.309C5.258,23.685 4.723,22.061 4.188,20.438C3.926,19.638 3.665,18.838 3.396,18.014C2.161,14.278 0.883,10.645 -0.75,7.063C-2,4 -2,4 -1.188,1.563C-0.796,1.047 -0.404,0.531 0,0Z" style="fill:rgb(110,118,128);fill-rule:nonzero;"/>
    </g>
    <g transform="matrix(1,0,0,1,616,377)">
        <path d="M0,0L1,0C1.25,5.625 1.25,5.625 -1,9C-0.792,12.013 0.3,13.428 2.063,15.938C4.053,19.084 4.425,20.386 4,24L1,24C-0.754,21.594 -0.754,21.594 -2.563,18.5C-3.657,16.636 -4.792,14.793 -6,13L-8,13C-6.429,7.973 -3.38,3.971 0,0Z" style="fill:rgb(95,109,125);fill-rule:nonzero;"/>
    </g>
    <g transform="matrix(1,0,0,1,513,311)">
        <path d="M0,0C7.994,1.196 15.398,3.267 23,6L23,10C14.917,8.298 6.969,6.163 -1,4C-0.67,2.68 -0.34,1.36 0,0Z" style="fill:rgb(106,127,139);fill-rule:nonzero;"/>
    </g>
    <g transform="matrix(1,0,0,1,499.895,484.727)">
        <path d="M0,0C0.963,0.626 1.926,1.253 2.918,1.898C3.894,2.53 4.87,3.162 5.875,3.813C6.611,4.295 7.347,4.777 8.105,5.273C4.108,6.606 1.114,5.541 -2.832,4.523C-3.548,4.353 -4.264,4.183 -5.002,4.008C-8.9,3.025 -11.897,1.997 -14.895,-0.727C-8.419,-4.028 -6.379,-3.805 0,0Z" style="fill:rgb(198,191,198);fill-rule:nonzero;"/>
    </g>
    <g transform="matrix(1,0,0,1,573,366)">
        <path d="M0,0C0.33,0.99 0.66,1.98 1,3C-0.152,4.91 -0.152,4.91 -1.938,7.063C-2.582,7.851 -3.227,8.64 -3.891,9.453C-4.587,10.294 -5.283,11.134 -6,12C-7.397,13.77 -8.793,15.541 -10.188,17.313C-13.804,21.886 -17.715,25.819 -22.125,29.625C-24.149,31.374 -26.108,33.108 -28,35C-28.99,34.67 -29.98,34.34 -31,34C-30.143,33.269 -30.143,33.269 -29.27,32.523C-18.19,22.835 -8.25,12.212 0,0Z" style="fill:rgb(218,194,198);fill-rule:nonzero;"/>
    </g>
    <g transform="matrix(1,0,0,1,608,322)">
        <path d="M0,0C0.66,0.33 1.32,0.66 2,1C-4.101,16.075 -10.49,30.708 -20,44C-20.99,43.34 -21.98,42.68 -23,42L-20,42C-19.67,40.35 -19.34,38.7 -19,37L-17,37L-17,34L-15,34C-14.892,33.442 -14.783,32.884 -14.672,32.309C-13.884,29.603 -12.67,27.497 -11.25,25.063C-8.353,19.88 -6.192,14.62 -4.176,9.043C-2.967,5.915 -1.543,2.975 0,0Z" style="fill:rgb(215,195,196);fill-rule:nonzero;"/>
    </g>
    <g transform="matrix(1,0,0,1,537,318)">
        <path d="M0,0C7.722,2.375 14.887,5.16 22,9C21.01,9.99 20.02,10.98 19,12C14.421,10.549 10.024,8.794 5.625,6.875C4.984,6.598 4.344,6.321 3.684,6.035C2.121,5.359 0.561,4.68 -1,4C-0.67,2.68 -0.34,1.36 0,0Z" style="fill:rgb(100,119,131);fill-rule:nonzero;"/>
    </g>
    <g transform="matrix(1,0,0,1,431,410)">
        <path d="M0,0C5.802,5.645 5.802,5.645 8,9L8,11C4.37,11.66 0.74,12.32 -3,13C-2.521,8.286 -2.032,4.334 0,0Z" style="fill:rgb(164,185,195);fill-rule:nonzero;"/>
    </g>
    <g transform="matrix(1,0,0,1,494,413)">
        <path d="M0,0C-8.484,5.055 -17.019,9.654 -26.125,13.5C-26.918,13.838 -27.71,14.175 -28.527,14.523C-32.68,16.235 -36.499,17.482 -41,18L-41,16C-37.492,14.396 -34.856,13.78 -31,14L-31,12C-30.196,11.753 -29.391,11.505 -28.563,11.25C-16.395,7.128 -16.395,7.128 -6,0C-2.444,-1.222 -2.444,-1.222 0,0Z" style="fill:rgb(216,197,199);fill-rule:nonzero;"/>
    </g>
    <g transform="matrix(1,0,0,1,484,483)">
        <path d="M0,0L0,2C0.66,2.33 1.32,2.66 2,3C1.34,3.66 0.68,4.32 0,5C1.98,5.99 3.96,6.98 6,8C5.67,8.66 5.34,9.32 5,10C2.688,10.188 2.688,10.188 0,10C-1,9 -2,8 -3,7C-5.26,5.795 -5.26,5.795 -7.688,4.813C-8.496,4.468 -9.304,4.124 -10.137,3.77C-10.752,3.516 -11.366,3.262 -12,3C-8.239,-0.761 -5.027,-0.251 0,0Z" style="fill:rgb(92,108,125);fill-rule:nonzero;"/>
    </g>
    <g transform="matrix(1,0,0,1,371,535)">
        <path d="M0,0L1,0C1.037,0.773 1.075,1.547 1.113,2.344C1.555,9.574 1.555,9.574 3.688,16.438C5,20 5,20 4.188,23C3.796,23.66 3.404,24.32 3,25L0,25C-2.108,22.112 -3,20.615 -3,17C-2.34,16.67 -1.68,16.34 -1,16C-0.688,13.286 -0.487,10.661 -0.375,7.938C-0.336,7.179 -0.298,6.42 -0.258,5.639C-0.163,3.76 -0.081,1.88 0,0Z" style="fill:rgb(180,130,151);fill-rule:nonzero;"/>
    </g>
    <g transform="matrix(1,0,0,1,479,294)">
        <path d="M0,0C3.75,-0.058 7.5,-0.094 11.25,-0.125C12.845,-0.15 12.845,-0.15 14.473,-0.176C15.497,-0.182 16.522,-0.189 17.578,-0.195C18.521,-0.206 19.463,-0.216 20.435,-0.227C23.1,0.009 24.719,0.643 27,2C23.426,2.819 20.143,3.118 16.48,3.098C15.459,3.094 14.437,3.091 13.385,3.088C12.33,3.08 11.275,3.071 10.188,3.063C9.113,3.058 8.039,3.053 6.932,3.049C4.288,3.037 1.644,3.021 -1,3C-0.67,2.01 -0.34,1.02 0,0Z" style="fill:rgb(85,108,122);fill-rule:nonzero;"/>
    </g>
    <g transform="matrix(1,0,0,1,585,299)">
        <path d="M0,0C0.99,0.33 1.98,0.66 3,1C2.636,7.233 2.091,12.504 -1,18C-3.188,19.438 -3.188,19.438 -5,20C-4.353,13.05 -2.14,6.618 0,0Z" style="fill:rgb(104,111,119);fill-rule:nonzero;"/>
    </g>
    <g transform="matrix(1,0,0,1,433,408)">
        <path d="M0,0C3.399,1.413 5.022,3.005 7.125,6C8.68,8.191 10.096,10.096 12,12C7.569,15.077 7.569,15.077 4.688,14.688C4.131,14.461 3.574,14.234 3,14C3.99,13.67 4.98,13.34 6,13C5.483,12.313 4.966,11.626 4.434,10.918C3.446,9.566 3.446,9.566 2.438,8.188C1.446,6.848 1.446,6.848 0.434,5.48C-0.039,4.662 -0.513,3.843 -1,3C-0.67,2.01 -0.34,1.02 0,0Z" style="fill:rgb(89,112,126);fill-rule:nonzero;"/>
    </g>
    <g transform="matrix(1,0,0,1,518,279)">
        <path d="M0,0L0,1C-0.784,1.103 -1.567,1.206 -2.375,1.313C-5.33,1.776 -5.33,1.776 -7,5C-10.039,5.512 -10.039,5.512 -13.625,5.688C-14.814,5.753 -16.002,5.819 -17.227,5.887C-18.599,5.943 -18.599,5.943 -20,6L-20,2C-6.367,-0.296 -6.367,-0.296 0,0Z" style="fill:rgb(90,111,122);fill-rule:nonzero;"/>
    </g>
    <g transform="matrix(1,0,0,1,467,444)">
        <path d="M0,0C-0.33,0.99 -0.66,1.98 -1,3C-3.582,4.168 -3.582,4.168 -6.813,5.188C-8.4,5.704 -8.4,5.704 -10.02,6.23C-13,7 -13,7 -17,7C-16.863,5.145 -16.863,5.145 -16,3C-13.418,1.699 -13.418,1.699 -10.188,0.688C-8.6,0.167 -8.6,0.167 -6.98,-0.363C-4.109,-0.977 -2.703,-1.014 0,0Z" style="fill:rgb(102,112,124);fill-rule:nonzero;"/>
    </g>
    <g transform="matrix(1,0,0,1,581,462)">
        <path d="M0,0C0.99,0.33 1.98,0.66 3,1L3,4L5,4L5,16C3.68,16.33 2.36,16.66 1,17L1,10C0.34,9.67 -0.32,9.34 -1,9C-0.835,8.072 -0.67,7.144 -0.5,6.188C0.077,3.044 0.077,3.044 0,0Z" style="fill:rgb(101,112,123);fill-rule:nonzero;"/>
    </g>
    <g transform="matrix(1,0,0,1,595,405)">
        <path d="M0,0C0.66,0.33 1.32,0.66 2,1C1.366,3.957 0.799,6.547 -1,9C-2.155,9.309 -3.31,9.619 -4.5,9.938C-5.655,10.288 -6.81,10.639 -8,11C-9.219,13.504 -9.219,13.504 -10,16C-12.125,16.813 -12.125,16.813 -14,17C-13.419,13.699 -12.451,12.089 -10.059,9.766C-9.184,8.905 -9.184,8.905 -8.291,8.027C-7.679,7.441 -7.068,6.854 -6.438,6.25C-5.822,5.648 -5.206,5.046 -4.572,4.426C-3.055,2.944 -1.528,1.471 0,0Z" style="fill:rgb(95,108,124);fill-rule:nonzero;"/>
    </g>
    <g transform="matrix(1,0,0,1,459,461)">
        <path d="M0,0C-3.347,4.183 -6.835,5.376 -12,6C-15,5.625 -15,5.625 -17,5C-16.67,4.01 -16.34,3.02 -16,2C-13.418,1.016 -13.418,1.016 -10.188,0.25C-9.129,-0.013 -8.071,-0.276 -6.98,-0.547C-4.183,-0.972 -2.625,-0.941 0,0Z" style="fill:rgb(106,118,133);fill-rule:nonzero;"/>
    </g>
    <g transform="matrix(1,0,0,1,624,370)">
        <path d="M0,0C2.094,3.402 2.179,6.053 2,10L0,10C-0.33,9.34 -0.66,8.68 -1,8C-2.65,8.33 -4.3,8.66 -6,9C-6.33,9.99 -6.66,10.98 -7,12C-7.813,9.313 -7.813,9.313 -8,6C-5.486,2.857 -3.83,1.277 0,0Z" style="fill:rgb(105,123,136);fill-rule:nonzero;"/>
    </g>
    <g transform="matrix(1,0,0,1,529,299)">
        <path d="M0,0C1.799,0.539 3.589,1.107 5.375,1.688C6.373,2.001 7.37,2.314 8.398,2.637C11,4 11,4 12.352,6.645C12.566,7.422 12.78,8.199 13,9C12.406,8.818 11.811,8.636 11.199,8.449C4.829,6.517 -1.571,4.723 -8,3L-8,2C-5.69,2.33 -3.38,2.66 -1,3C-0.67,2.01 -0.34,1.02 0,0Z" style="fill:rgb(106,128,139);fill-rule:nonzero;"/>
    </g>
    <g transform="matrix(1,0,0,1,531,363)">
        <path d="M0,0C0.66,0.33 1.32,0.66 2,1C1.543,5.682 -0.191,7.631 -3.563,10.813C-4.802,11.998 -4.802,11.998 -6.066,13.207C-6.704,13.799 -7.343,14.39 -8,15C-9.063,13.188 -9.063,13.188 -10,11C-9.67,10.01 -9.34,9.02 -9,8L-6,8C-5.34,6.35 -4.68,4.7 -4,3L-1,3C-0.67,2.01 -0.34,1.02 0,0Z" style="fill:rgb(108,124,136);fill-rule:nonzero;"/>
    </g>
    <g transform="matrix(1,0,0,1,516.188,326.75)">
        <path d="M0,0C3.978,0.261 7.045,1.02 10.813,2.25L10.813,6.25C4.944,5.726 0.264,4.489 -5.188,2.25C-3.188,0.25 -3.188,0.25 0,0Z" style="fill:rgb(95,117,130);fill-rule:nonzero;"/>
    </g>
    <g transform="matrix(1,0,0,1,514,472)">
        <path d="M0,0C1.605,0.957 3.209,1.916 4.813,2.875C5.706,3.409 6.599,3.942 7.52,4.492C9.373,5.619 11.195,6.797 13,8C10.863,9.18 10.863,9.18 8,10C5.105,8.883 5.105,8.883 2.188,7.125C0.724,6.263 0.724,6.263 -0.77,5.383C-1.506,4.926 -2.242,4.47 -3,4C-2.67,3.34 -2.34,2.68 -2,2L0,2L0,0Z" style="fill:rgb(118,127,139);fill-rule:nonzero;"/>
    </g>
    <g transform="matrix(1,0,0,1,520,417)">
        <path d="M0,0C0.66,0.33 1.32,0.66 2,1C-4.919,8.236 -14.772,15.722 -25,17C-20.482,13.177 -15.624,10.312 -10.527,7.355C-6.769,5.146 -3.341,2.827 0,0Z" style="fill:rgb(215,195,198);fill-rule:nonzero;"/>
    </g>
    <g transform="matrix(1,0,0,1,582,425)">
        <path d="M0,0C0.33,1.32 0.66,2.64 1,4C0.196,4.289 -0.609,4.578 -1.438,4.875C-4.133,5.733 -4.133,5.733 -5,8C-4.404,9.857 -3.725,11.689 -3,13.5C-2.275,15.311 -1.596,17.143 -1,19C-1.33,19.66 -1.66,20.32 -2,21C-4.31,16.38 -6.62,11.76 -9,7C-2.25,0 -2.25,0 0,0Z" style="fill:rgb(213,198,204);fill-rule:nonzero;"/>
    </g>
    <g transform="matrix(1,0,0,1,566,395)">
        <path d="M0,0L0,2C-0.99,2.495 -0.99,2.495 -2,3C-2.433,4.176 -2.433,4.176 -2.875,5.375C-4.171,8.4 -5.125,9.439 -8,11C-10.75,11.188 -10.75,11.188 -13,11C-3.73,0 -3.73,0 0,0Z" style="fill:rgb(116,124,135);fill-rule:nonzero;"/>
    </g>
    <g transform="matrix(1,0,0,1,571,300)">
        <path d="M0,0L0,5C-1.875,6.063 -1.875,6.063 -4,7C-4.66,6.67 -5.32,6.34 -6,6C-4.902,2.707 -3.783,0 0,0ZM-5,7C-4.375,8.813 -4.375,8.813 -4,11C-4.99,12.485 -4.99,12.485 -6,14C-6.99,13.67 -7.98,13.34 -9,13C-7.848,10.532 -6.952,8.952 -5,7Z" style="fill:rgb(130,148,160);fill-rule:nonzero;"/>
    </g>
    <g transform="matrix(1,0,0,1,520.938,284.562)">
        <path d="M0,0C1.021,0.217 1.021,0.217 2.063,0.438C0.964,3.734 0.117,4.484 -2.5,6.625C-3.141,7.155 -3.781,7.685 -4.441,8.23C-4.935,8.629 -5.429,9.027 -5.938,9.438C-7.258,8.778 -8.578,8.118 -9.938,7.438C-3.863,0.575 -3.863,0.575 0,0Z" style="fill:rgb(89,111,122);fill-rule:nonzero;"/>
    </g>
    <g transform="matrix(1,0,0,1,535,378)">
        <path d="M0,0C0.99,0.33 1.98,0.66 3,1C-7.074,11.275 -7.074,11.275 -12,15L-14,15L-14,12C-11.049,9.771 -8.514,8.171 -5,7C-3.791,5 -3.791,5 -3,3L-1,3C-0.67,2.01 -0.34,1.02 0,0Z" style="fill:rgb(222,202,204);fill-rule:nonzero;"/>
    </g>
    <g transform="matrix(1,0,0,1,578,315)">
        <path d="M0,0C0.66,0.66 1.32,1.32 2,2C0.922,4.523 -0.162,7.043 -1.25,9.563C-1.55,10.267 -1.851,10.971 -2.16,11.697C-4.166,16.327 -6.423,20.661 -9,25C-10,22 -10,22 -9,19L-7,19C-6.83,18.466 -6.66,17.933 -6.484,17.383C-4.565,11.483 -2.359,5.737 0,0Z" style="fill:rgb(217,196,196);fill-rule:nonzero;"/>
    </g>
    <g transform="matrix(1,0,0,1,520,469)">
        <path d="M0,0L0,5C1.282,5.615 1.282,5.615 2.59,6.242C4.247,7.05 4.247,7.05 5.938,7.875C7.04,8.409 8.142,8.942 9.277,9.492C12,11 12,11 13,13C6.102,11.141 0.756,8.205 -5,4C-3.366,2.292 -2.131,1.065 0,0Z" style="fill:rgb(207,192,198);fill-rule:nonzero;"/>
    </g>
    <g transform="matrix(1,0,0,1,560,442)">
        <path d="M0,0C0.66,0.33 1.32,0.66 2,1C1.34,2.32 0.68,3.64 0,5C0.675,5.11 1.351,5.219 2.047,5.332C2.939,5.491 3.831,5.649 4.75,5.813C5.632,5.963 6.513,6.114 7.422,6.27C10.191,7.054 11.826,8.146 14,10C7.935,9.202 1.502,7.751 -4,5L-4,3C-2,1.375 -2,1.375 0,0Z" style="fill:rgb(178,172,188);fill-rule:nonzero;"/>
    </g>
    <g transform="matrix(1,0,0,1,504,381)">
        <path d="M0,0C1.671,0.248 1.671,0.248 3.375,0.5C6.944,1.265 6.944,1.265 10,0C9.67,1.65 9.34,3.3 9,5C6.69,5.33 4.38,5.66 2,6C1.01,4.35 0.02,2.7 -1,1C-0.67,0.67 -0.34,0.34 0,0Z" style="fill:rgb(89,112,126);fill-rule:nonzero;"/>
    </g>
    <g transform="matrix(1,0,0,1,591,323)">
        <path d="M0,0C0.66,0.66 1.32,1.32 2,2C0.552,5.151 -0.91,8.295 -2.375,11.438C-2.788,12.335 -3.2,13.233 -3.625,14.158C-4.025,15.012 -4.424,15.866 -4.836,16.746C-5.386,17.932 -5.386,17.932 -5.947,19.142C-7,21 -7,21 -9,22C-8.402,17.557 -6.695,14.32 -4.5,10.438C-1.623,5.459 -1.623,5.459 0,0Z" style="fill:rgb(216,199,200);fill-rule:nonzero;"/>
    </g>
    <g transform="matrix(1,0,0,1,559.312,451.168)">
        <path d="M0,0C0.557,0.275 1.114,0.549 1.688,0.832L1.688,1.832C-1.356,1.914 -3.384,1.808 -6.313,0.832C-8.339,2.125 -10.338,3.462 -12.313,4.832C-14.688,5.582 -14.688,5.582 -16.313,5.832C-14.99,1.865 -13.143,0.77 -9.656,-1.359C-5.977,-2.629 -3.47,-1.471 0,0Z" style="fill:rgb(192,183,196);fill-rule:nonzero;"/>
    </g>
    <g transform="matrix(1,0,0,1,540,356)">
        <path d="M0,0C0.707,1.766 0.707,1.766 1,4C-0.363,5.922 -0.363,5.922 -2.313,7.75C-3.266,8.67 -3.266,8.67 -4.238,9.609C-6,11 -6,11 -8,11C-7.914,8.087 -7.421,6.432 -5.375,4.332C-3.616,2.839 -1.837,1.396 0,0Z" style="fill:rgb(97,110,120);fill-rule:nonzero;"/>
    </g>
    <g transform="matrix(1,0,0,1,552,341)">
        <path d="M0,0C0.66,0.66 1.32,1.32 2,2C0.35,4.31 -1.3,6.62 -3,9C-4.32,8.34 -5.64,7.68 -7,7C-6.188,4.563 -6.188,4.563 -5,2C-4.01,1.67 -3.02,1.34 -2,1C-1.34,0.67 -0.68,0.34 0,0Z" style="fill:rgb(114,125,133);fill-rule:nonzero;"/>
    </g>
    <g transform="matrix(1,0,0,1,515,297)">
        <path d="M0,0C1.439,0.087 2.876,0.196 4.313,0.313C5.113,0.371 5.914,0.429 6.738,0.488C9,1 9,1 12,4L1,4C0.67,2.68 0.34,1.36 0,0Z" style="fill:rgb(89,113,124);fill-rule:nonzero;"/>
    </g>
    <g transform="matrix(1,0,0,1,510,400)">
        <path d="M0,0C0.66,0.33 1.32,0.66 2,1C0.296,2.277 -1.413,3.546 -3.125,4.813C-4.076,5.52 -5.028,6.228 -6.008,6.957C-8.912,8.94 -11.822,10.505 -15,12C-15.33,11.34 -15.66,10.68 -16,10C-14.271,8.895 -12.542,7.791 -10.813,6.688C-9.85,6.073 -8.887,5.458 -7.895,4.824C-6.939,4.222 -5.984,3.62 -5,3C-4.096,2.408 -3.193,1.817 -2.262,1.207C-1.142,0.61 -1.142,0.61 0,0Z" style="fill:rgb(220,201,204);fill-rule:nonzero;"/>
    </g>
    <g transform="matrix(1,0,0,1,621,377)">
        <path d="M0,0C4.046,1.349 4.955,3.348 7,7C6.67,7.99 6.34,8.98 6,10C0.247,5.594 0.247,5.594 -0.938,2.75C-0.958,2.173 -0.979,1.595 -1,1C-0.67,0.67 -0.34,0.34 0,0Z" style="fill:rgb(85,106,118);fill-rule:nonzero;"/>
    </g>
    <g transform="matrix(1,0,0,1,488,356)">
        <path d="M0,0L8,0C7.34,1.98 6.68,3.96 6,6L3,6C0,2.667 0,2.667 0,0Z" style="fill:rgb(153,175,188);fill-rule:nonzero;"/>
    </g>
    <g transform="matrix(1,0,0,1,535,460)">
        <path d="M0,0C0.66,0.66 1.32,1.32 2,2C0.68,2.33 -0.64,2.66 -2,3C-1.724,4.941 -1.724,4.941 -1,7C-0.01,7.66 0.98,8.32 2,9C1.01,9.495 1.01,9.495 0,10C-1.945,9.223 -1.945,9.223 -4.125,8.063C-4.849,7.682 -5.574,7.302 -6.32,6.91C-6.875,6.61 -7.429,6.309 -8,6C-5.385,3.88 -2.804,1.869 0,0Z" style="fill:rgb(210,191,197);fill-rule:nonzero;"/>
    </g>
    <g transform="matrix(1,0,0,1,575,434)">
        <path d="M0,0C1.108,3.325 0.845,5.622 0,9C-0.866,7.793 -0.866,7.793 -1.75,6.563C-3.981,4.021 -4.745,3.349 -8,3C-7.67,2.34 -7.34,1.68 -7,1C-4.614,0.388 -2.465,0 0,0Z" style="fill:rgb(110,127,143);fill-rule:nonzero;"/>
    </g>
    <g transform="matrix(1,0,0,1,529,392)">
        <path d="M0,0C0.33,0.99 0.66,1.98 1,3C-0.553,4.324 -2.118,5.634 -3.688,6.938C-4.558,7.668 -5.428,8.399 -6.324,9.152C-9.015,11.011 -10.788,11.635 -14,12C-9.734,7.459 -4.964,3.753 0,0Z" style="fill:rgb(210,189,195);fill-rule:nonzero;"/>
    </g>
    <g transform="matrix(1,0,0,1,593,415)">
        <path d="M0,0C0.66,1.65 1.32,3.3 2,5C0.824,4.691 0.824,4.691 -0.375,4.375C-1.674,4.189 -1.674,4.189 -3,4C-5.36,6.36 -5.491,7.779 -6,11C-6.99,10.01 -7.98,9.02 -9,8C-7.709,4.128 -4.409,0 0,0Z" style="fill:rgb(210,192,197);fill-rule:nonzero;"/>
    </g>
    <g transform="matrix(1,0,0,1,573,292)">
        <path d="M0,0L2,0C1.555,5.273 0.916,10.018 -1,15L-3,15C-2,10 -1,5 0,0Z" style="fill:rgb(124,126,135);fill-rule:nonzero;"/>
    </g>
    <g transform="matrix(1,0,0,1,527,466)">
        <path d="M0,0C2.64,0.99 5.28,1.98 8,3C7.01,3.99 6.02,4.98 5,6C-0.75,4.25 -0.75,4.25 -3,2L0,2L0,0Z" style="fill:rgb(117,124,137);fill-rule:nonzero;"/>
    </g>
    <g transform="matrix(1,0,0,1,589,394)">
        <path d="M0,0L2,0C-0.515,5.945 -4.904,10.214 -10,14C-10.66,13.67 -11.32,13.34 -12,13C-11.385,12.397 -10.77,11.793 -10.137,11.172C-9.328,10.373 -8.52,9.573 -7.688,8.75C-6.887,7.961 -6.086,7.172 -5.262,6.359C-2.993,4.099 -2.993,4.099 -1.332,1.703C-0.892,1.141 -0.453,0.579 0,0Z" style="fill:rgb(180,171,189);fill-rule:nonzero;"/>
    </g>
    <g transform="matrix(1,0,0,1,565,368)">
        <path d="M0,0C0.66,0.33 1.32,0.66 2,1C-1.3,4.96 -4.6,8.92 -8,13C-8.33,11.68 -8.66,10.36 -9,9C-6.813,6.5 -2.474,2.474 -1.688,1.688C-1.131,1.131 -0.574,0.574 0,0Z" style="fill:rgb(212,195,198);fill-rule:nonzero;"/>
    </g>
    <g transform="matrix(1,0,0,1,496,486)">
        <path d="M0,0C4.776,0.468 8.045,1.243 12,4C8.448,5.184 7.302,4.695 3.813,3.563C2.911,3.275 2.01,2.988 1.082,2.691C0.395,2.463 -0.292,2.235 -1,2C-0.67,1.34 -0.34,0.68 0,0Z" style="fill:rgb(195,199,208);fill-rule:nonzero;"/>
    </g>
    <g transform="matrix(1,0,0,1,455,460)">
        <path d="M0,0L0,1C-1.936,1.504 -3.874,2.003 -5.813,2.5C-6.891,2.778 -7.97,3.057 -9.082,3.344C-12,4 -12,4 -15,4L-15,2C-9.687,-0.09 -5.713,-1.611 0,0Z" style="fill:rgb(207,186,192);fill-rule:nonzero;"/>
    </g>
    <g transform="matrix(1,0,0,1,476,525)">
        <path d="M0,0C0.66,0.33 1.32,0.66 2,1C1.169,1.922 1.169,1.922 0.32,2.863C-0.766,4.076 -0.766,4.076 -1.875,5.313C-2.954,6.513 -2.954,6.513 -4.055,7.738C-6.116,10.042 -6.116,10.042 -8,13C-8.567,9.146 -8.036,8.05 -5.688,4.813C-3,2 -3,2 0,0Z" style="fill:rgb(243,222,235);fill-rule:nonzero;"/>
    </g>
    <g transform="matrix(1,0,0,1,597,459)">
        <path d="M0,0C0.99,0.33 1.98,0.66 3,1L3,8L0,8C-0.381,5.674 -0.713,3.339 -1,1C-0.67,0.67 -0.34,0.34 0,0Z" style="fill:rgb(114,120,126);fill-rule:nonzero;"/>
    </g>
    <g transform="matrix(1,0,0,1,491,418)">
        <path d="M0,0C-2.53,3.092 -5.225,3.909 -9,5C-6.965,-0.67 -5.879,-1.392 0,0Z" style="fill:rgb(102,113,125);fill-rule:nonzero;"/>
    </g>
    <g transform="matrix(1,0,0,1,502,415)">
        <path d="M0,0C-1.662,1.007 -3.33,2.005 -5,3C-5.866,3.557 -5.866,3.557 -6.75,4.125C-11.519,7.085 -11.519,7.085 -14.215,6.609C-15.098,6.308 -15.098,6.308 -16,6C-13.902,4.8 -11.798,3.615 -9.688,2.438C-8.795,1.924 -8.795,1.924 -7.885,1.4C-3.34,-1.113 -3.34,-1.113 0,0Z" style="fill:rgb(212,191,196);fill-rule:nonzero;"/>
    </g>
    <g transform="matrix(1,0,0,1,477,487)">
        <path d="M0,0C4.501,1.068 8.749,2.14 13,4C12.67,4.66 12.34,5.32 12,6C9.688,6.188 9.688,6.188 7,6C5.438,4.625 5.438,4.625 4,3C1.9,1.824 1.9,1.824 0,1L0,0Z" style="fill:rgb(125,108,129);fill-rule:nonzero;"/>
    </g>
    <g transform="matrix(1,0,0,1,624,370)">
        <path d="M0,0C2.094,3.402 2.179,6.053 2,10L0,10C-2,7 -2,7 -1.688,3.875C-1,1 -1,1 0,0Z" style="fill:rgb(173,187,198);fill-rule:nonzero;"/>
    </g>
    <g transform="matrix(1,0,0,1,511.598,506.902)">
        <path d="M0,0C1.488,0.007 2.977,0.019 4.465,0.035C5.223,0.04 5.982,0.044 6.764,0.049C8.643,0.061 10.523,0.079 12.402,0.098L12.402,1.098C10.028,1.436 7.653,1.768 5.277,2.098C4.612,2.193 3.947,2.288 3.262,2.387C-0.724,2.934 -4.576,3.198 -8.598,3.098C-7.958,2.788 -7.319,2.479 -6.66,2.16C-2.604,0.071 -2.604,0.071 0,0Z" style="fill:rgb(244,221,233);fill-rule:nonzero;"/>
    </g>
    <g transform="matrix(1,0,0,1,542,486)">
        <path d="M0,0C5.955,0.392 10.628,1.371 16,4C15.01,4.66 14.02,5.32 13,6C10.625,5.391 10.625,5.391 8,4.25C7.134,3.884 6.268,3.518 5.375,3.141C3,2 3,2 0,0Z" style="fill:rgb(204,186,193);fill-rule:nonzero;"/>
    </g>
    <g transform="matrix(1,0,0,1,488,481)">
        <path d="M0,0C0.33,0.66 0.66,1.32 1,2C-0.65,2.66 -2.3,3.32 -4,4L-4,2L-10,2C-6.309,-0.461 -4.206,-1.542 0,0Z" style="fill:rgb(108,125,140);fill-rule:nonzero;"/>
    </g>
    <g transform="matrix(1,0,0,1,428,429)">
        <path d="M0,0C-1,2 -1,2 -2.848,2.633C-3.579,2.795 -4.309,2.958 -5.063,3.125C-5.796,3.293 -6.529,3.46 -7.285,3.633C-7.851,3.754 -8.417,3.875 -9,4C-9.33,2.68 -9.66,1.36 -10,0C-6.306,-1.231 -3.794,-0.644 0,0Z" style="fill:rgb(216,189,191);fill-rule:nonzero;"/>
    </g>
    <g transform="matrix(1,0,0,1,580,461)">
        <path d="M0,0L1,0L1,7C-1.97,6.67 -4.94,6.34 -8,6L-8,5L-1,5C-0.67,3.35 -0.34,1.7 0,0Z" style="fill:rgb(181,173,188);fill-rule:nonzero;"/>
    </g>
    <g transform="matrix(1,0,0,1,610,444)">
        <path d="M0,0C2.29,3.435 2.178,4.985 2,9C1.01,9.33 0.02,9.66 -1,10C-2.158,5.946 -1.837,3.782 0,0Z" style="fill:rgb(125,134,142);fill-rule:nonzero;"/>
    </g>
    <g transform="matrix(1,0,0,1,415,385)">
        <path d="M0,0C0.99,0.99 1.98,1.98 3,3C2.813,6.625 2.813,6.625 2,10C1.01,10.495 1.01,10.495 0,11L0,0Z" style="fill:rgb(153,174,185);fill-rule:nonzero;"/>
    </g>
    <g transform="matrix(1,0,0,1,520,379)">
        <path d="M0,0C0,3 0,3 -2.375,5.563C-3.241,6.367 -4.108,7.171 -5,8C-5.66,8.66 -6.32,9.32 -7,10C-7.99,9.67 -8.98,9.34 -10,9C-6.7,6.03 -3.4,3.06 0,0Z" style="fill:rgb(211,190,193);fill-rule:nonzero;"/>
    </g>
    <g transform="matrix(1,0,0,1,595,328)">
        <path d="M0,0C1.403,3.189 0.904,4.253 -0.375,7.625C-1.24,9.422 -2.108,11.217 -3,13L-5,13C-3.582,8.528 -1.887,4.289 0,0Z" style="fill:rgb(215,196,198);fill-rule:nonzero;"/>
    </g>
    <g transform="matrix(1,0,0,1,495,482)">
        <path d="M0,0C-0.33,0.66 -0.66,1.32 -1,2C-2.32,1.67 -3.64,1.34 -5,1C-4.67,2.32 -4.34,3.64 -4,5C-5.98,4.34 -7.96,3.68 -10,3C-4.378,-1.459 -4.378,-1.459 0,0Z" style="fill:rgb(183,187,197);fill-rule:nonzero;"/>
    </g>
    <g transform="matrix(1,0,0,1,575,432)">
        <path d="M0,0C2.926,1.463 3.097,3.41 4.188,6.438C4.552,7.426 4.917,8.415 5.293,9.434C6,12 6,12 5,14C3.97,12.047 2.951,10.087 1.938,8.125C1.085,6.489 1.085,6.489 0.215,4.82C-0.186,3.89 -0.587,2.959 -1,2C-0.67,1.34 -0.34,0.68 0,0Z" style="fill:rgb(222,205,206);fill-rule:nonzero;"/>
    </g>
    <g transform="matrix(1,0,0,1,597,408)">
        <path d="M0,0L1,0C1.66,3.96 2.32,7.92 3,12C0.141,8.773 -1.762,6.396 -2,2C-1.34,1.34 -0.68,0.68 0,0Z" style="fill:rgb(208,188,194);fill-rule:nonzero;"/>
    </g>
    <g transform="matrix(1,0,0,1,626,358)">
        <path d="M0,0L2,0C2.33,1.65 2.66,3.3 3,5C2.402,5.289 1.804,5.578 1.188,5.875C-1.193,7.047 -1.193,7.047 -4,9C-2.801,5.917 -1.523,2.937 0,0Z" style="fill:rgb(112,126,137);fill-rule:nonzero;"/>
    </g>
    <g transform="matrix(1,0,0,1,596,316)">
        <path d="M0,0C0.99,0.33 1.98,0.66 3,1C2.25,6.75 2.25,6.75 0,9C-0.879,2.848 -0.879,2.848 -1,1C-0.67,0.67 -0.34,0.34 0,0Z" style="fill:rgb(109,118,127);fill-rule:nonzero;"/>
    </g>
    <g transform="matrix(1,0,0,1,476,443)">
        <path d="M0,0L0,2C-1.412,2.534 -2.83,3.052 -4.25,3.563C-5.039,3.853 -5.828,4.143 -6.641,4.441C-9.191,5.045 -10.553,4.847 -13,4C-11.21,3.329 -9.418,2.664 -7.625,2C-6.627,1.629 -5.63,1.258 -4.602,0.875C-2,0 -2,0 0,0Z" style="fill:rgb(206,188,194);fill-rule:nonzero;"/>
    </g>
    <g transform="matrix(1,0,0,1,456,420)">
        <path d="M0,0C-1.759,2.179 -2.694,2.937 -5.48,3.512C-6.374,3.57 -7.267,3.628 -8.188,3.688C-9.089,3.753 -9.99,3.819 -10.918,3.887C-11.949,3.943 -11.949,3.943 -13,4C-8.626,1.084 -5.295,-0.303 0,0Z" style="fill:rgb(207,187,191);fill-rule:nonzero;"/>
    </g>
    <g transform="matrix(1,0,0,1,577,377)">
        <path d="M0,0C0.66,0.33 1.32,0.66 2,1C-0.64,4.3 -3.28,7.6 -6,11C-6.33,10.01 -6.66,9.02 -7,8C-5.566,5.957 -5.566,5.957 -3.563,3.813C-2.904,3.097 -2.245,2.382 -1.566,1.645C-1.049,1.102 -0.533,0.559 0,0Z" style="fill:rgb(215,195,199);fill-rule:nonzero;"/>
    </g>
    <g transform="matrix(1,0,0,1,621,342)">
        <path d="M0,0C0.66,0.99 1.32,1.98 2,3C1,6 -1.66,10.32 -2,11L-4,11C-3.523,9.541 -3.043,8.083 -2.563,6.625C-2.296,5.813 -2.029,5.001 -1.754,4.164C-1,2 -1,2 0,0Z" style="fill:rgb(177,173,188);fill-rule:nonzero;"/>
    </g>
    <g transform="matrix(1,0,0,1,466,477)">
        <path d="M0,0C-0.99,0.495 -0.99,0.495 -2,1C-2.99,2.485 -2.99,2.485 -4,4C-5.98,3.01 -7.96,2.02 -10,1L-10,0C-6.337,-0.749 -3.576,-1.238 0,0Z" style="fill:rgb(197,188,200);fill-rule:nonzero;"/>
    </g>
    <g transform="matrix(1,0,0,1,554,357)">
        <path d="M0,0L2,0C0.332,3.941 -2.227,6.789 -5,10C-5.33,9.34 -5.66,8.68 -6,8C-5.05,6.661 -4.089,5.329 -3.125,4C-2.591,3.257 -2.058,2.515 -1.508,1.75C-1.01,1.173 -0.513,0.595 0,0Z" style="fill:rgb(224,203,205);fill-rule:nonzero;"/>
    </g>
    <g transform="matrix(1,0,0,1,570,344)">
        <path d="M0,0C0.99,0.33 1.98,0.66 3,1C-0.625,6.75 -0.625,6.75 -4,9C-2.801,5.917 -1.523,2.937 0,0Z" style="fill:rgb(218,196,200);fill-rule:nonzero;"/>
    </g>
    <g transform="matrix(1,0,0,1,562,328)">
        <path d="M0,0C0.66,0.99 1.32,1.98 2,3C0.35,5.31 -1.3,7.62 -3,10C-3.66,9.67 -4.32,9.34 -5,9C-3.35,6.03 -1.7,3.06 0,0Z" style="fill:rgb(215,189,191);fill-rule:nonzero;"/>
    </g>
    <g transform="matrix(1,0,0,1,426,548)">
        <path d="M0,0L0,2C-1.145,2.402 -1.145,2.402 -2.313,2.813C-4.905,3.958 -6.088,4.997 -8,7L-10,7C-8.892,3.786 -8.015,3.009 -5,1.25C-2,0 -2,0 0,0Z" style="fill:rgb(111,130,135);fill-rule:nonzero;"/>
    </g>
    <g transform="matrix(1,0,0,1,542,491)">
        <path d="M0,0C4.455,0.99 4.455,0.99 9,2L9,3C4.545,3.495 4.545,3.495 0,4L0,0Z" style="fill:rgb(194,185,195);fill-rule:nonzero;"/>
    </g>
    <g transform="matrix(1,0,0,1,471,486)">
        <path d="M0,0C3.125,0.188 3.125,0.188 6,1C6.33,1.66 6.66,2.32 7,3L-3,3C-2.01,2.01 -1.02,1.02 0,0Z" style="fill:rgb(237,217,231);fill-rule:nonzero;"/>
    </g>
    <g transform="matrix(1,0,0,1,480,483)">
        <path d="M0,0L4,0L4,2C4.66,2.33 5.32,2.66 6,3C4.02,3.99 4.02,3.99 2,5C1.34,4.34 0.68,3.68 0,3L0,0Z" style="fill:rgb(91,117,136);fill-rule:nonzero;"/>
    </g>
    <g transform="matrix(1,0,0,1,551,476)">
        <path d="M0,0C1.65,0.33 3.3,0.66 5,1C4.67,2.32 4.34,3.64 4,5C1.03,4.505 1.03,4.505 -2,4C-1.34,2.68 -0.68,1.36 0,0Z" style="fill:rgb(117,127,138);fill-rule:nonzero;"/>
    </g>
    <g transform="matrix(1,0,0,1,503,425)">
        <path d="M0,0C-4.95,2.475 -4.95,2.475 -10,5C-8,1 -8,1 -5.563,-0.313C-3,-1 -3,-1 0,0Z" style="fill:rgb(212,192,197);fill-rule:nonzero;"/>
    </g>
    <g transform="matrix(1,0,0,1,629,408)">
        <path d="M0,0C1.6,3.201 0.032,5.723 -1,9L-3,9C-3.75,7.313 -3.75,7.313 -4,5C-2.063,2.25 -2.063,2.25 0,0Z" style="fill:rgb(113,128,136);fill-rule:nonzero;"/>
    </g>
    <g transform="matrix(1,0,0,1,514,404)">
        <path d="M0,0C0.33,0.66 0.66,1.32 1,2C-3.297,6.004 -3.297,6.004 -5,7C-6.32,6.67 -7.64,6.34 -9,6C-6.03,4.02 -3.06,2.04 0,0Z" style="fill:rgb(212,192,198);fill-rule:nonzero;"/>
    </g>
    <g transform="matrix(1,0,0,1,562,356)">
        <path d="M0,0C0.99,0.33 1.98,0.66 3,1C2.046,2.149 1.086,3.294 0.125,4.438C-0.409,5.076 -0.942,5.714 -1.492,6.371C-3,8 -3,8 -5,9C-3.502,5.888 -1.801,2.947 0,0Z" style="fill:rgb(220,199,202);fill-rule:nonzero;"/>
    </g>
    <g transform="matrix(1,0,0,1,611,329)">
        <path d="M0,0C0.66,0.66 1.32,1.32 2,2C-0.625,8.75 -0.625,8.75 -4,11C-3.523,9.541 -3.043,8.083 -2.563,6.625C-2.296,5.813 -2.029,5.001 -1.754,4.164C-1,2 -1,2 0,0Z" style="fill:rgb(169,162,181);fill-rule:nonzero;"/>
    </g>
    <g transform="matrix(1,0,0,1,460,473)">
        <path d="M0,0L0,2C0.66,2.66 1.32,3.32 2,4L-5,4L-5,1C-2,0 -2,0 0,0Z" style="fill:rgb(120,132,146);fill-rule:nonzero;"/>
    </g>
    <g transform="matrix(1,0,0,1,607,449)">
        <path d="M0,0C2.186,2.186 2.912,2.933 3,6C0.563,8.75 0.563,8.75 -2,11C-1.34,7.37 -0.68,3.74 0,0Z" style="fill:rgb(222,204,204);fill-rule:nonzero;"/>
    </g>
    <g transform="matrix(1,0,0,1,543,356)">
        <path d="M0,0C0.33,0.99 0.66,1.98 1,3C-0.404,5.264 -2.197,7.021 -4,9C-4.99,8.67 -5.98,8.34 -7,8C-4.69,5.36 -2.38,2.72 0,0Z" style="fill:rgb(208,188,190);fill-rule:nonzero;"/>
    </g>
    <g transform="matrix(1,0,0,1,496,512)">
        <path d="M0,0L0,2C-3.473,3.158 -6.361,3.069 -10,3C-6.262,0.508 -4.523,0 0,0Z" style="fill:rgb(177,133,150);fill-rule:nonzero;"/>
    </g>
    <g transform="matrix(1,0,0,1,455,460)">
        <path d="M0,0C1.32,0.33 2.64,0.66 4,1C3.01,2.485 3.01,2.485 2,4C-0.625,4.188 -0.625,4.188 -3,4C-2.01,2.68 -1.02,1.36 0,0Z" style="fill:rgb(98,113,129);fill-rule:nonzero;"/>
    </g>
    <g transform="matrix(1,0,0,1,593,415)">
        <path d="M0,0C-2.31,1.65 -4.62,3.3 -7,5C-6.625,2.563 -6.625,2.563 -6,0C-4,-1 -4,-1 0,0Z" style="fill:rgb(112,120,131);fill-rule:nonzero;"/>
    </g>
    <g transform="matrix(1,0,0,1,445,399)">
        <path d="M0,0L2,0C2.66,1.65 3.32,3.3 4,5C3.01,5.33 2.02,5.66 1,6C-0.063,4.125 -0.063,4.125 -1,2C-0.67,1.34 -0.34,0.68 0,0Z" style="fill:rgb(87,111,124);fill-rule:nonzero;"/>
    </g>
    <g transform="matrix(1,0,0,1,614,376)">
        <path d="M0,0L2,0C0.688,3.937 -0.919,6.227 -4,9C-3.355,5.517 -2.018,2.906 0,0Z" style="fill:rgb(177,169,184);fill-rule:nonzero;"/>
    </g>
    <g transform="matrix(1,0,0,1,544,368)">
        <path d="M0,0C1.32,0.33 2.64,0.66 4,1C0.535,3.97 0.535,3.97 -3,7L-3,4L-1,4C-0.67,2.68 -0.34,1.36 0,0Z" style="fill:rgb(217,195,194);fill-rule:nonzero;"/>
    </g>
    <g transform="matrix(1,0,0,1,541,351)">
        <path d="M0,0C0.313,2.25 0.313,2.25 0,5C-2.5,7.313 -2.5,7.313 -5,9C-4,7 -3,5 -2,3C-2.66,2.67 -3.32,2.34 -4,2C-1,0 -1,0 0,0Z" style="fill:rgb(104,125,136);fill-rule:nonzero;"/>
    </g>
    <g transform="matrix(1,0,0,1,561,348)">
        <path d="M0,0C0.66,0.33 1.32,0.66 2,1C-0.475,4.465 -0.475,4.465 -3,8C-3.66,7.67 -4.32,7.34 -5,7C-3.35,4.69 -1.7,2.38 0,0Z" style="fill:rgb(221,203,203);fill-rule:nonzero;"/>
    </g>
    <g transform="matrix(1,0,0,1,429,702)">
        <path d="M0,0C0.66,0.33 1.32,0.66 2,1C0.02,3.31 -1.96,5.62 -4,8C-4.33,7.34 -4.66,6.68 -5,6C-3.35,4.02 -1.7,2.04 0,0Z" style="fill:rgb(246,237,217);fill-rule:nonzero;"/>
    </g>
    <g transform="matrix(1,0,0,1,515,438)">
        <path d="M0,0C0.33,0.66 0.66,1.32 1,2C-4.176,5.223 -4.176,5.223 -6,6C-6.99,5.67 -7.98,5.34 -9,5C-6.03,3.35 -3.06,1.7 0,0Z" style="fill:rgb(181,173,189);fill-rule:nonzero;"/>
    </g>
    <g transform="matrix(1,0,0,1,436,426)">
        <path d="M0,0L0,2C-5.415,3.231 -5.415,3.231 -8.375,2.063C-8.911,1.712 -9.448,1.361 -10,1C-6.565,0.375 -3.509,0 0,0Z" style="fill:rgb(208,187,189);fill-rule:nonzero;"/>
    </g>
    <g transform="matrix(1,0,0,1,601,404)">
        <path d="M0,0C0.99,0.33 1.98,0.66 3,1L3,3C1.02,3.99 -0.96,4.98 -3,6C-2.427,3.133 -2.139,2.139 0,0Z" style="fill:rgb(220,203,209);fill-rule:nonzero;"/>
    </g>
    <g transform="matrix(1,0,0,1,553,343)">
        <path d="M0,0C0.33,1.32 0.66,2.64 1,4C-1.97,6.475 -1.97,6.475 -5,9C-3.751,5.541 -2.325,2.853 0,0Z" style="fill:rgb(219,200,202);fill-rule:nonzero;"/>
    </g>
</svg>
