<svg xmlns="http://www.w3.org/2000/svg" xmlns:xlink="http://www.w3.org/1999/xlink" width="800" zoomAndPan="magnify" viewBox="0 0 600 149.999998" height="200" preserveAspectRatio="xMidYMid meet" version="1.2"><defs/><g id="8ee9a9d71d"><g style="fill:#000000;fill-opacity:1;"><g transform="translate(64.635979, 92.873177)"><path style="stroke:none" d="M -33.78125 37.4375 C -35.113281 37.4375 -36.203125 37.273438 -37.046875 36.953125 C -37.890625 36.640625 -38.3125 36.109375 -38.3125 35.359375 C -38.3125 34.023438 -37.484375 32.285156 -35.828125 30.140625 C -34.179688 27.992188 -31.820312 25.585938 -28.75 22.921875 C -25.675781 20.265625 -22.007812 17.515625 -17.75 14.671875 C -13.5 11.835938 -8.769531 9.070312 -3.5625 6.375 C 1.644531 3.6875 7.203125 1.242188 13.109375 -0.953125 C 12.828125 -2.171875 12.597656 -3.457031 12.421875 -4.8125 C 12.242188 -6.175781 12.15625 -7.582031 12.15625 -9.03125 C 12.15625 -14.53125 13.546875 -20.304688 16.328125 -26.359375 C 19.109375 -32.410156 22.898438 -38.160156 27.703125 -43.609375 C 21.222656 -43.367188 14.722656 -42.625 8.203125 -41.375 C 1.691406 -40.132812 -4.570312 -38.398438 -10.59375 -36.171875 C -16.613281 -33.941406 -22.171875 -31.191406 -27.265625 -27.921875 C -32.367188 -24.648438 -36.800781 -20.859375 -40.5625 -16.546875 C -44.320312 -12.234375 -47.1875 -7.382812 -49.15625 -2 L -52.03125 -3.21875 C -49.132812 -9.0625 -45.46875 -14.226562 -41.03125 -18.71875 C -36.601562 -23.207031 -31.65625 -27.054688 -26.1875 -30.265625 C -20.71875 -33.484375 -14.910156 -36.132812 -8.765625 -38.21875 C -2.628906 -40.300781 3.617188 -41.863281 9.984375 -42.90625 C 16.359375 -43.945312 22.613281 -44.554688 28.75 -44.734375 C 33.03125 -49.367188 37.90625 -53.550781 43.375 -57.28125 C 48.851562 -61.019531 54.773438 -63.972656 61.140625 -66.140625 C 67.515625 -68.316406 74.148438 -69.40625 81.046875 -69.40625 C 83.992188 -69.40625 86.46875 -68.835938 88.46875 -67.703125 C 90.46875 -66.578125 91.46875 -64.828125 91.46875 -62.453125 C 91.46875 -60.015625 90.566406 -57.445312 88.765625 -54.75 C 86.972656 -52.0625 84.554688 -49.238281 81.515625 -46.28125 C 78.472656 -43.332031 75.128906 -40.179688 71.484375 -36.828125 L 71.140625 -36.484375 C 76.984375 -33.234375 81.296875 -29.347656 84.078125 -24.828125 C 86.859375 -20.316406 88.25 -15.75 88.25 -11.125 C 88.25 -6.019531 87.0625 -1.488281 84.6875 2.46875 C 82.3125 6.4375 79.140625 9.78125 75.171875 12.5 C 71.210938 15.226562 66.800781 17.300781 61.9375 18.71875 C 57.070312 20.132812 52.148438 20.84375 47.171875 20.84375 C 42.472656 20.84375 37.9375 20.191406 33.5625 18.890625 C 29.195312 17.585938 25.363281 15.601562 22.0625 12.9375 C 16.789062 17.34375 11.15625 21.335938 5.15625 24.921875 C -0.832031 28.515625 -7.328125 31.410156 -14.328125 33.609375 C -14.734375 33.722656 -15.644531 33.984375 -17.0625 34.390625 C -18.488281 34.796875 -20.195312 35.226562 -22.1875 35.6875 C -24.1875 36.15625 -26.210938 36.5625 -28.265625 36.90625 C -30.328125 37.257812 -32.164062 37.4375 -33.78125 37.4375 Z M 69.828125 -37.171875 C 71.921875 -38.910156 74.125 -40.789062 76.4375 -42.8125 C 78.75 -44.84375 80.914062 -46.957031 82.9375 -49.15625 C 84.96875 -51.363281 86.632812 -53.550781 87.9375 -55.71875 C 89.25 -57.894531 89.90625 -59.992188 89.90625 -62.015625 C 89.90625 -64.097656 89.019531 -65.660156 87.25 -66.703125 C 85.476562 -67.742188 83.347656 -68.265625 80.859375 -68.265625 C 74.378906 -68.265625 68.082031 -67.238281 61.96875 -65.1875 C 55.863281 -63.132812 50.144531 -60.335938 44.8125 -56.796875 C 39.488281 -53.265625 34.742188 -49.269531 30.578125 -44.8125 L 32.140625 -44.8125 C 40.304688 -44.8125 47.515625 -44.128906 53.765625 -42.765625 C 60.015625 -41.410156 65.367188 -39.546875 69.828125 -37.171875 Z M 14.765625 -1.5625 C 17.722656 -2.601562 20.734375 -3.570312 23.796875 -4.46875 C 26.867188 -5.363281 30 -6.132812 33.1875 -6.78125 C 33.707031 -7.238281 34.238281 -7.65625 34.78125 -8.03125 C 35.332031 -8.40625 35.84375 -8.796875 36.3125 -9.203125 C 37.175781 -9.835938 38.488281 -10.878906 40.25 -12.328125 C 42.019531 -13.773438 44.003906 -15.410156 46.203125 -17.234375 C 48.410156 -19.066406 50.65625 -20.921875 52.9375 -22.796875 C 55.226562 -24.679688 57.359375 -26.445312 59.328125 -28.09375 C 61.296875 -29.75 62.859375 -31.066406 64.015625 -32.046875 C 65.285156 -33.328125 66.90625 -34.773438 68.875 -36.390625 C 64.53125 -38.585938 59.347656 -40.351562 53.328125 -41.6875 C 47.304688 -43.019531 40.332031 -43.6875 32.40625 -43.6875 C 31.9375 -43.6875 31.457031 -43.671875 30.96875 -43.640625 C 30.476562 -43.617188 30 -43.609375 29.53125 -43.609375 C 24.726562 -38.273438 20.921875 -32.597656 18.109375 -26.578125 C 15.296875 -20.554688 13.890625 -14.796875 13.890625 -9.296875 C 13.890625 -7.898438 13.976562 -6.550781 14.15625 -5.25 C 14.332031 -3.945312 14.535156 -2.71875 14.765625 -1.5625 Z M 46.984375 19.546875 C 51.796875 19.546875 56.546875 18.863281 61.234375 17.5 C 65.921875 16.144531 70.175781 14.148438 74 11.515625 C 77.820312 8.878906 80.875 5.660156 83.15625 1.859375 C 85.445312 -1.929688 86.59375 -6.226562 86.59375 -11.03125 C 86.59375 -15.601562 85.273438 -20.0625 82.640625 -24.40625 C 80.003906 -28.75 75.851562 -32.484375 70.1875 -35.609375 C 65.957031 -31.671875 61.726562 -27.382812 57.5 -22.75 C 53.269531 -18.125 48.925781 -13.40625 44.46875 -8.59375 C 48.632812 -9.113281 52.804688 -9.375 56.984375 -9.375 C 58.953125 -9.375 60.90625 -9.316406 62.84375 -9.203125 C 64.78125 -9.085938 66.734375 -8.914062 68.703125 -8.6875 L 67.84375 -5.5625 C 65.226562 -6.132812 62.585938 -6.535156 59.921875 -6.765625 C 57.265625 -7.003906 54.601562 -7.125 51.9375 -7.125 C 48.8125 -7.125 45.710938 -6.945312 42.640625 -6.59375 C 39.628906 -3.414062 36.503906 -0.265625 33.265625 2.859375 C 30.023438 5.992188 26.695312 9.035156 23.28125 11.984375 C 26.34375 14.535156 29.957031 16.429688 34.125 17.671875 C 38.300781 18.921875 42.585938 19.546875 46.984375 19.546875 Z M 17.546875 5.296875 L 30.3125 -4.609375 C 27.707031 -4.023438 25.144531 -3.367188 22.625 -2.640625 C 20.101562 -1.921875 17.597656 -1.128906 15.109375 -0.265625 C 15.398438 0.722656 15.757812 1.691406 16.1875 2.640625 C 16.625 3.597656 17.078125 4.484375 17.546875 5.296875 Z M -33.78125 36.484375 C -31.875 36.484375 -29.515625 35.898438 -26.703125 34.734375 C -23.898438 33.578125 -20.789062 31.984375 -17.375 29.953125 C -13.957031 27.929688 -10.351562 25.632812 -6.5625 23.0625 C -2.769531 20.488281 1.050781 17.765625 4.90625 14.890625 C 8.757812 12.023438 12.539062 9.175781 16.25 6.34375 C 15.03125 4.425781 14.101562 2.425781 13.46875 0.34375 C 7.84375 2.425781 2.515625 4.742188 -2.515625 7.296875 C -7.554688 9.847656 -12.144531 12.484375 -16.28125 15.203125 C -20.425781 17.921875 -24.015625 20.539062 -27.046875 23.0625 C -30.085938 25.582031 -32.429688 27.851562 -34.078125 29.875 C -35.734375 31.90625 -36.5625 33.5 -36.5625 34.65625 C -36.5625 35.875 -35.632812 36.484375 -33.78125 36.484375 Z M -33.78125 36.484375 "/></g></g><g style="fill:#000000;fill-opacity:1;"><g transform="translate(134.116082, 92.873177)"><path style="stroke:none" d="M 27.1875 -29.875 L 26.671875 -30.046875 C 27.878906 -31.328125 29.148438 -32.675781 30.484375 -34.09375 C 31.816406 -35.507812 32.988281 -36.796875 34 -37.953125 C 35.019531 -39.109375 35.644531 -39.890625 35.875 -40.296875 C 36.164062 -40.648438 36.484375 -40.851562 36.828125 -40.90625 C 37.171875 -40.96875 37.429688 -41 37.609375 -41 C 38.421875 -41 39.59375 -41.054688 41.125 -41.171875 C 42.664062 -41.285156 43.984375 -41.375 45.078125 -41.4375 L 45.25 -40.828125 C 43.457031 -39.722656 41.5625 -38.5625 39.5625 -37.34375 C 37.5625 -36.132812 35.664062 -34.976562 33.875 -33.875 C 32.082031 -32.769531 30.578125 -31.851562 29.359375 -31.125 C 28.140625 -30.40625 27.414062 -29.988281 27.1875 -29.875 Z M 0.515625 2.515625 C -1.160156 2.515625 -2.59375 2.148438 -3.78125 1.421875 C -4.96875 0.703125 -5.5625 -0.460938 -5.5625 -2.078125 C -5.5625 -3.472656 -5.082031 -5.140625 -4.125 -7.078125 C -3.164062 -9.015625 -1.800781 -10.992188 -0.03125 -13.015625 C 1.726562 -15.046875 3.835938 -16.929688 6.296875 -18.671875 C 8.753906 -20.410156 11.472656 -21.816406 14.453125 -22.890625 C 17.441406 -23.960938 20.613281 -24.5 23.96875 -24.5 C 25.53125 -24.5 26.3125 -24.035156 26.3125 -23.109375 C 26.3125 -22.179688 25.488281 -20.992188 23.84375 -19.546875 C 22.195312 -18.097656 19.910156 -16.707031 16.984375 -15.375 C 14.054688 -14.039062 10.65625 -13.082031 6.78125 -12.5 C 4.457031 -10.1875 2.46875 -7.957031 0.8125 -5.8125 C -0.832031 -3.675781 -1.65625 -2.054688 -1.65625 -0.953125 C -1.65625 -0.0234375 -1.320312 0.609375 -0.65625 0.953125 C 0.0078125 1.304688 0.835938 1.484375 1.828125 1.484375 C 3.210938 1.484375 4.757812 1.21875 6.46875 0.6875 C 8.175781 0.164062 9.582031 -0.410156 10.6875 -1.046875 C 12.769531 -2.203125 15.375 -3.835938 18.5 -5.953125 C 21.625 -8.066406 25.039062 -10.335938 28.75 -12.765625 L 29.09375 -12.078125 C 25.5625 -9.753906 22.273438 -7.550781 19.234375 -5.46875 C 16.191406 -3.382812 13.457031 -1.675781 11.03125 -0.34375 C 9.46875 0.46875 7.742188 1.144531 5.859375 1.6875 C 3.984375 2.238281 2.203125 2.515625 0.515625 2.515625 Z M 7.46875 -13.203125 C 9.78125 -13.546875 12.007812 -14.140625 14.15625 -14.984375 C 16.300781 -15.828125 18.226562 -16.769531 19.9375 -17.8125 C 21.644531 -18.851562 22.988281 -19.835938 23.96875 -20.765625 C 24.957031 -21.691406 25.453125 -22.441406 25.453125 -23.015625 C 25.453125 -23.535156 24.957031 -23.796875 23.96875 -23.796875 C 22.757812 -23.796875 21.226562 -23.289062 19.375 -22.28125 C 17.519531 -21.269531 15.5625 -19.96875 13.5 -18.375 C 11.445312 -16.78125 9.4375 -15.054688 7.46875 -13.203125 Z M 7.46875 -13.203125 "/></g></g><g style="fill:#000000;fill-opacity:1;"><g transform="translate(156.088846, 92.873177)"><path style="stroke:none" d="M 4.4375 2.515625 C 2.519531 2.515625 1.5625 1.242188 1.5625 -1.296875 C 1.5625 -2.691406 2.082031 -4.171875 3.125 -5.734375 C 4.164062 -7.296875 5.492188 -8.875 7.109375 -10.46875 C 8.734375 -12.0625 10.472656 -13.625 12.328125 -15.15625 C 14.179688 -16.6875 15.921875 -18.132812 17.546875 -19.5 C 19.171875 -20.863281 20.503906 -22.078125 21.546875 -23.140625 C 22.585938 -24.210938 23.109375 -25.066406 23.109375 -25.703125 C 23.109375 -25.992188 23.046875 -26.488281 22.921875 -27.1875 C 22.804688 -27.882812 22.691406 -28.640625 22.578125 -29.453125 C 21.941406 -28.691406 20.796875 -27.53125 19.140625 -25.96875 C 17.492188 -24.40625 15.132812 -22.421875 12.0625 -20.015625 C 9 -17.617188 4.976562 -14.796875 0 -11.546875 L -0.609375 -12.078125 C 4.722656 -15.546875 8.960938 -18.507812 12.109375 -20.96875 C 15.265625 -23.4375 17.640625 -25.4375 19.234375 -26.96875 C 20.828125 -28.5 21.914062 -29.613281 22.5 -30.3125 L 22.5 -31.96875 C 22.5 -33.757812 22.972656 -35.070312 23.921875 -35.90625 C 24.878906 -36.75 25.820312 -37.171875 26.75 -37.171875 C 27.96875 -37.171875 28.578125 -36.648438 28.578125 -35.609375 C 28.578125 -34.679688 28.054688 -33.796875 27.015625 -32.953125 C 25.972656 -32.117188 25.101562 -31.554688 24.40625 -31.265625 C 23.945312 -31.035156 23.71875 -30.691406 23.71875 -30.234375 C 23.71875 -28.953125 23.847656 -27.660156 24.109375 -26.359375 C 24.367188 -25.054688 24.5 -23.738281 24.5 -22.40625 C 24.5 -20.726562 23.816406 -19.050781 22.453125 -17.375 C 21.085938 -15.695312 19.40625 -14.03125 17.40625 -12.375 C 15.414062 -10.726562 13.40625 -9.148438 11.375 -7.640625 C 9.351562 -6.140625 7.660156 -4.738281 6.296875 -3.4375 C 4.929688 -2.132812 4.25 -0.957031 4.25 0.09375 C 4.25 1.019531 4.6875 1.484375 5.5625 1.484375 C 6.65625 1.484375 8.332031 0.832031 10.59375 -0.46875 C 12.851562 -1.78125 15.601562 -3.503906 18.84375 -5.640625 C 22.09375 -7.785156 25.6875 -10.160156 29.625 -12.765625 L 29.96875 -12.078125 C 26.144531 -9.523438 22.566406 -7.132812 19.234375 -4.90625 C 15.910156 -2.675781 12.988281 -0.882812 10.46875 0.46875 C 7.945312 1.832031 5.9375 2.515625 4.4375 2.515625 Z M 4.4375 2.515625 "/></g></g><g style="fill:#000000;fill-opacity:1;"><g transform="translate(178.930104, 92.873177)"><path style="stroke:none" d="M 27.1875 -29.875 L 26.671875 -30.046875 C 27.878906 -31.328125 29.148438 -32.675781 30.484375 -34.09375 C 31.816406 -35.507812 32.988281 -36.796875 34 -37.953125 C 35.019531 -39.109375 35.644531 -39.890625 35.875 -40.296875 C 36.164062 -40.648438 36.484375 -40.851562 36.828125 -40.90625 C 37.171875 -40.96875 37.429688 -41 37.609375 -41 C 38.421875 -41 39.59375 -41.054688 41.125 -41.171875 C 42.664062 -41.285156 43.984375 -41.375 45.078125 -41.4375 L 45.25 -40.828125 C 43.457031 -39.722656 41.5625 -38.5625 39.5625 -37.34375 C 37.5625 -36.132812 35.664062 -34.976562 33.875 -33.875 C 32.082031 -32.769531 30.578125 -31.851562 29.359375 -31.125 C 28.140625 -30.40625 27.414062 -29.988281 27.1875 -29.875 Z M 0.515625 2.515625 C -1.160156 2.515625 -2.59375 2.148438 -3.78125 1.421875 C -4.96875 0.703125 -5.5625 -0.460938 -5.5625 -2.078125 C -5.5625 -3.472656 -5.082031 -5.140625 -4.125 -7.078125 C -3.164062 -9.015625 -1.800781 -10.992188 -0.03125 -13.015625 C 1.726562 -15.046875 3.835938 -16.929688 6.296875 -18.671875 C 8.753906 -20.410156 11.472656 -21.816406 14.453125 -22.890625 C 17.441406 -23.960938 20.613281 -24.5 23.96875 -24.5 C 25.53125 -24.5 26.3125 -24.035156 26.3125 -23.109375 C 26.3125 -22.179688 25.488281 -20.992188 23.84375 -19.546875 C 22.195312 -18.097656 19.910156 -16.707031 16.984375 -15.375 C 14.054688 -14.039062 10.65625 -13.082031 6.78125 -12.5 C 4.457031 -10.1875 2.46875 -7.957031 0.8125 -5.8125 C -0.832031 -3.675781 -1.65625 -2.054688 -1.65625 -0.953125 C -1.65625 -0.0234375 -1.320312 0.609375 -0.65625 0.953125 C 0.0078125 1.304688 0.835938 1.484375 1.828125 1.484375 C 3.210938 1.484375 4.757812 1.21875 6.46875 0.6875 C 8.175781 0.164062 9.582031 -0.410156 10.6875 -1.046875 C 12.769531 -2.203125 15.375 -3.835938 18.5 -5.953125 C 21.625 -8.066406 25.039062 -10.335938 28.75 -12.765625 L 29.09375 -12.078125 C 25.5625 -9.753906 22.273438 -7.550781 19.234375 -5.46875 C 16.191406 -3.382812 13.457031 -1.675781 11.03125 -0.34375 C 9.46875 0.46875 7.742188 1.144531 5.859375 1.6875 C 3.984375 2.238281 2.203125 2.515625 0.515625 2.515625 Z M 7.46875 -13.203125 C 9.78125 -13.546875 12.007812 -14.140625 14.15625 -14.984375 C 16.300781 -15.828125 18.226562 -16.769531 19.9375 -17.8125 C 21.644531 -18.851562 22.988281 -19.835938 23.96875 -20.765625 C 24.957031 -21.691406 25.453125 -22.441406 25.453125 -23.015625 C 25.453125 -23.535156 24.957031 -23.796875 23.96875 -23.796875 C 22.757812 -23.796875 21.226562 -23.289062 19.375 -22.28125 C 17.519531 -21.269531 15.5625 -19.96875 13.5 -18.375 C 11.445312 -16.78125 9.4375 -15.054688 7.46875 -13.203125 Z M 7.46875 -13.203125 "/></g></g><g style="fill:#000000;fill-opacity:1;"><g transform="translate(200.902868, 92.873177)"><path style="stroke:none" d="M 39.953125 2.515625 C 39.023438 2.515625 38.253906 2.148438 37.640625 1.421875 C 37.035156 0.703125 36.734375 -0.320312 36.734375 -1.65625 C 36.734375 -2.632812 37.222656 -3.789062 38.203125 -5.125 C 39.191406 -6.457031 40.46875 -7.875 42.03125 -9.375 C 43.601562 -10.882812 45.253906 -12.375 46.984375 -13.84375 C 48.722656 -15.320312 50.375 -16.726562 51.9375 -18.0625 C 53.5 -19.394531 54.769531 -20.539062 55.75 -21.5 C 56.738281 -22.457031 57.234375 -23.132812 57.234375 -23.53125 C 57.234375 -23.707031 57.09375 -23.796875 56.8125 -23.796875 C 55.882812 -23.796875 54.492188 -23.347656 52.640625 -22.453125 C 50.785156 -21.554688 48.6875 -20.382812 46.34375 -18.9375 C 44 -17.488281 41.59375 -15.921875 39.125 -14.234375 C 36.664062 -12.554688 34.320312 -10.921875 32.09375 -9.328125 C 29.863281 -7.742188 27.9375 -6.34375 26.3125 -5.125 L 19.984375 1.296875 C 18.535156 1.296875 17.070312 1.335938 15.59375 1.421875 C 14.113281 1.515625 12.941406 1.617188 12.078125 1.734375 L 11.8125 1.21875 C 12.738281 0.519531 14.007812 -0.476562 15.625 -1.78125 C 17.25 -3.082031 19.046875 -4.554688 21.015625 -6.203125 C 22.984375 -7.859375 24.9375 -9.550781 26.875 -11.28125 C 28.820312 -13.019531 30.617188 -14.6875 32.265625 -16.28125 C 33.921875 -17.875 35.253906 -19.265625 36.265625 -20.453125 C 37.273438 -21.640625 37.78125 -22.492188 37.78125 -23.015625 C 37.78125 -23.359375 37.519531 -23.53125 37 -23.53125 C 36.65625 -23.53125 36.25 -23.445312 35.78125 -23.28125 C 34.332031 -22.695312 32.550781 -21.796875 30.4375 -20.578125 C 28.332031 -19.367188 26.09375 -17.984375 23.71875 -16.421875 C 21.34375 -14.859375 18.992188 -13.265625 16.671875 -11.640625 C 14.359375 -10.015625 12.25 -8.507812 10.34375 -7.125 L 2.078125 1.296875 C 0.628906 1.296875 -0.828125 1.335938 -2.296875 1.421875 C -3.773438 1.515625 -4.945312 1.617188 -5.8125 1.734375 L -6.078125 1.21875 C -5.148438 0.519531 -3.875 -0.476562 -2.25 -1.78125 C -0.632812 -3.082031 1.140625 -4.570312 3.078125 -6.25 C 5.023438 -7.925781 6.984375 -9.648438 8.953125 -11.421875 C 10.921875 -13.191406 12.710938 -14.898438 14.328125 -16.546875 C 15.953125 -18.191406 17.269531 -19.648438 18.28125 -20.921875 C 19.289062 -22.203125 19.796875 -23.160156 19.796875 -23.796875 C 19.796875 -24.085938 19.625 -24.234375 19.28125 -24.234375 C 18.988281 -24.234375 18.304688 -23.898438 17.234375 -23.234375 C 16.171875 -22.566406 14.882812 -21.726562 13.375 -20.71875 C 11.875 -19.707031 10.367188 -18.675781 8.859375 -17.625 C 7.347656 -16.582031 6.015625 -15.660156 4.859375 -14.859375 L 0 -11.546875 L -0.609375 -12.078125 L 4.6875 -15.640625 C 7.125 -17.316406 9.46875 -18.921875 11.71875 -20.453125 C 13.976562 -21.984375 16.003906 -23.253906 17.796875 -24.265625 C 19.597656 -25.285156 20.988281 -25.796875 21.96875 -25.796875 C 22.613281 -25.796875 23.050781 -25.617188 23.28125 -25.265625 C 23.507812 -24.921875 23.625 -24.519531 23.625 -24.0625 C 23.625 -23.132812 22.828125 -21.597656 21.234375 -19.453125 C 19.640625 -17.316406 16.875 -14.132812 12.9375 -9.90625 C 15.144531 -11.46875 17.519531 -13.113281 20.0625 -14.84375 C 22.613281 -16.582031 25.101562 -18.191406 27.53125 -19.671875 C 29.96875 -21.148438 32.171875 -22.363281 34.140625 -23.3125 C 36.109375 -24.269531 37.613281 -24.75 38.65625 -24.75 C 40.101562 -24.75 40.828125 -23.96875 40.828125 -22.40625 C 40.828125 -21.882812 40.476562 -21.085938 39.78125 -20.015625 C 39.082031 -18.953125 37.894531 -17.492188 36.21875 -15.640625 C 34.539062 -13.785156 32.222656 -11.320312 29.265625 -8.25 C 31.472656 -9.8125 33.9375 -11.535156 36.65625 -13.421875 C 39.375 -15.304688 42.09375 -17.113281 44.8125 -18.84375 C 47.539062 -20.582031 50.019531 -22 52.25 -23.09375 C 54.476562 -24.195312 56.171875 -24.75 57.328125 -24.75 C 58.773438 -24.75 59.5 -24.082031 59.5 -22.75 C 59.5 -21.070312 58.832031 -19.320312 57.5 -17.5 C 56.164062 -15.675781 54.53125 -13.863281 52.59375 -12.0625 C 50.65625 -10.269531 48.703125 -8.578125 46.734375 -6.984375 C 44.765625 -5.398438 43.113281 -3.984375 41.78125 -2.734375 C 40.445312 -1.492188 39.78125 -0.550781 39.78125 0.09375 C 39.78125 1.019531 40.210938 1.484375 41.078125 1.484375 C 42.179688 1.484375 43.863281 0.832031 46.125 -0.46875 C 48.382812 -1.78125 51.132812 -3.503906 54.375 -5.640625 C 57.613281 -7.785156 61.203125 -10.160156 65.140625 -12.765625 L 65.484375 -12.078125 C 61.671875 -9.523438 58.097656 -7.132812 54.765625 -4.90625 C 51.429688 -2.675781 48.503906 -0.882812 45.984375 0.46875 C 43.472656 1.832031 41.460938 2.515625 39.953125 2.515625 Z M 39.953125 2.515625 "/></g></g><g style="fill:#000000;fill-opacity:1;"><g transform="translate(259.266079, 92.873177)"><path style="stroke:none" d="M 20.9375 -29.875 L 20.40625 -30.046875 C 20.925781 -31.148438 21.519531 -32.378906 22.1875 -33.734375 C 22.851562 -35.097656 23.363281 -36.070312 23.71875 -36.65625 C 24 -37 24.3125 -37.195312 24.65625 -37.25 C 25.007812 -37.3125 25.273438 -37.34375 25.453125 -37.34375 C 26.265625 -37.34375 27.332031 -37.3125 28.65625 -37.25 C 29.988281 -37.195312 31.117188 -37.113281 32.046875 -37 L 32.21875 -36.390625 C 30.832031 -35.578125 29.3125 -34.691406 27.65625 -33.734375 C 26.007812 -32.785156 24.5625 -31.945312 23.3125 -31.21875 C 22.070312 -30.5 21.28125 -30.050781 20.9375 -29.875 Z M -3.640625 1.90625 C -4.566406 1.90625 -5.332031 1.660156 -5.9375 1.171875 C -6.550781 0.679688 -6.859375 -0.171875 -6.859375 -1.390625 C -6.859375 -1.910156 -6.640625 -2.660156 -6.203125 -3.640625 C -5.773438 -4.628906 -4.921875 -6.003906 -3.640625 -7.765625 C -2.367188 -9.535156 -0.503906 -11.820312 1.953125 -14.625 C 4.410156 -17.4375 7.695312 -20.929688 11.8125 -25.109375 C 13.257812 -25.109375 14.722656 -25.164062 16.203125 -25.28125 C 17.679688 -25.394531 18.851562 -25.476562 19.71875 -25.53125 L 19.984375 -25.015625 C 18.878906 -24.203125 17.351562 -22.957031 15.40625 -21.28125 C 13.46875 -19.601562 11.398438 -17.71875 9.203125 -15.625 C 7.003906 -13.539062 4.921875 -11.472656 2.953125 -9.421875 C 0.984375 -7.367188 -0.632812 -5.570312 -1.90625 -4.03125 C -3.1875 -2.5 -3.828125 -1.414062 -3.828125 -0.78125 C -3.828125 0.320312 -3.273438 0.875 -2.171875 0.875 C -1.179688 0.875 0.0625 0.5 1.5625 -0.25 C 3.070312 -1.007812 4.375 -1.738281 5.46875 -2.4375 C 7.5 -3.769531 9.859375 -5.332031 12.546875 -7.125 C 15.242188 -8.914062 18.097656 -10.796875 21.109375 -12.765625 L 21.453125 -12.078125 C 18.441406 -10.109375 15.617188 -8.222656 12.984375 -6.421875 C 10.347656 -4.628906 7.929688 -3.039062 5.734375 -1.65625 C 4.691406 -1.007812 3.242188 -0.253906 1.390625 0.609375 C -0.460938 1.472656 -2.140625 1.90625 -3.640625 1.90625 Z M -3.640625 1.90625 "/></g></g><g style="fill:#000000;fill-opacity:1;"><g transform="translate(273.509125, 92.873177)"><path style="stroke:none" d="M 0.515625 2.515625 C -1.160156 2.515625 -2.59375 2.148438 -3.78125 1.421875 C -4.96875 0.703125 -5.5625 -0.460938 -5.5625 -2.078125 C -5.5625 -3.472656 -5.082031 -5.140625 -4.125 -7.078125 C -3.164062 -9.015625 -1.800781 -10.992188 -0.03125 -13.015625 C 1.726562 -15.046875 3.835938 -16.929688 6.296875 -18.671875 C 8.753906 -20.410156 11.472656 -21.816406 14.453125 -22.890625 C 17.441406 -23.960938 20.613281 -24.5 23.96875 -24.5 C 25.53125 -24.5 26.3125 -24.035156 26.3125 -23.109375 C 26.3125 -22.179688 25.488281 -20.992188 23.84375 -19.546875 C 22.195312 -18.097656 19.910156 -16.707031 16.984375 -15.375 C 14.054688 -14.039062 10.65625 -13.082031 6.78125 -12.5 C 4.457031 -10.1875 2.46875 -7.957031 0.8125 -5.8125 C -0.832031 -3.675781 -1.65625 -2.054688 -1.65625 -0.953125 C -1.65625 -0.0234375 -1.320312 0.609375 -0.65625 0.953125 C 0.0078125 1.304688 0.835938 1.484375 1.828125 1.484375 C 3.210938 1.484375 4.757812 1.21875 6.46875 0.6875 C 8.175781 0.164062 9.582031 -0.410156 10.6875 -1.046875 C 12.769531 -2.203125 15.375 -3.835938 18.5 -5.953125 C 21.625 -8.066406 25.039062 -10.335938 28.75 -12.765625 L 29.09375 -12.078125 C 25.5625 -9.753906 22.273438 -7.550781 19.234375 -5.46875 C 16.191406 -3.382812 13.457031 -1.675781 11.03125 -0.34375 C 9.46875 0.46875 7.742188 1.144531 5.859375 1.6875 C 3.984375 2.238281 2.203125 2.515625 0.515625 2.515625 Z M 7.46875 -13.203125 C 9.78125 -13.546875 12.007812 -14.140625 14.15625 -14.984375 C 16.300781 -15.828125 18.226562 -16.769531 19.9375 -17.8125 C 21.644531 -18.851562 22.988281 -19.835938 23.96875 -20.765625 C 24.957031 -21.691406 25.453125 -22.441406 25.453125 -23.015625 C 25.453125 -23.535156 24.957031 -23.796875 23.96875 -23.796875 C 22.757812 -23.796875 21.226562 -23.289062 19.375 -22.28125 C 17.519531 -21.269531 15.5625 -19.96875 13.5 -18.375 C 11.445312 -16.78125 9.4375 -15.054688 7.46875 -13.203125 Z M 7.46875 -13.203125 "/></g></g><g style="fill:#000000;fill-opacity:1;"><g transform="translate(295.481889, 92.873177)"><path style="stroke:none" d=""/></g></g><g style="fill:#000000;fill-opacity:1;"><g transform="translate(304.253325, 92.873177)"><path style="stroke:none" d="M 32.921875 3.21875 C 28.398438 3.21875 24.15625 2.882812 20.1875 2.21875 C 16.226562 1.550781 12.742188 0.507812 9.734375 -0.90625 C 6.722656 -2.332031 4.347656 -4.1875 2.609375 -6.46875 C 0.867188 -8.757812 0 -11.492188 0 -14.671875 C 0 -17.285156 0.546875 -19.445312 1.640625 -21.15625 C 2.742188 -22.863281 4.117188 -24.117188 5.765625 -24.921875 C 7.421875 -25.734375 9.003906 -26.140625 10.515625 -26.140625 C 12.015625 -26.140625 13.3125 -25.75 14.40625 -24.96875 C 15.507812 -24.1875 16.0625 -23.046875 16.0625 -21.546875 C 16.0625 -20.097656 15.597656 -18.675781 14.671875 -17.28125 C 13.753906 -15.894531 12.078125 -15.054688 9.640625 -14.765625 C 8.773438 -14.648438 7.804688 -14.445312 6.734375 -14.15625 C 5.660156 -13.863281 4.734375 -13.457031 3.953125 -12.9375 C 3.171875 -12.414062 2.78125 -11.75 2.78125 -10.9375 C 2.78125 -7.925781 4.71875 -5.40625 8.59375 -3.375 C 12.476562 -1.351562 17.894531 -0.34375 24.84375 -0.34375 C 32.3125 -0.34375 41.300781 -1.789062 51.8125 -4.6875 C 62.320312 -7.582031 73.832031 -12.503906 86.34375 -19.453125 C 88.882812 -20.847656 91.425781 -22.296875 93.96875 -23.796875 C 96.519531 -25.304688 99.039062 -26.8125 101.53125 -28.3125 C 100.09375 -31.269531 98.242188 -33.90625 95.984375 -36.21875 C 93.722656 -38.53125 91.203125 -40.53125 88.421875 -42.21875 C 83.847656 -38.507812 78.894531 -35.394531 73.5625 -32.875 C 68.238281 -30.351562 62.882812 -28.46875 57.5 -27.21875 C 52.113281 -25.976562 47.046875 -25.359375 42.296875 -25.359375 C 37.953125 -25.359375 34.070312 -25.894531 30.65625 -26.96875 C 27.238281 -28.039062 24.53125 -29.632812 22.53125 -31.75 C 20.539062 -33.863281 19.546875 -36.507812 19.546875 -39.6875 C 19.546875 -42.0625 20.382812 -44.191406 22.0625 -46.078125 C 23.738281 -47.960938 26.050781 -49.566406 29 -50.890625 C 31.957031 -52.222656 35.363281 -53.25 39.21875 -53.96875 C 43.070312 -54.695312 47.140625 -55.0625 51.421875 -55.0625 C 57.734375 -55.0625 64.175781 -54.222656 70.75 -52.546875 C 77.320312 -50.867188 83.269531 -48.234375 88.59375 -44.640625 C 91.488281 -47.367188 94.066406 -50.410156 96.328125 -53.765625 C 98.585938 -57.117188 100.410156 -60.828125 101.796875 -64.890625 L 105.28125 -64.890625 C 103.65625 -60.660156 101.523438 -56.78125 98.890625 -53.25 C 96.253906 -49.71875 93.316406 -46.503906 90.078125 -43.609375 C 92.679688 -41.691406 95.039062 -39.503906 97.15625 -37.046875 C 99.269531 -34.585938 101.019531 -31.820312 102.40625 -28.75 C 109.644531 -33.09375 116.765625 -37.390625 123.765625 -41.640625 C 130.773438 -45.898438 137.664062 -49.765625 144.4375 -53.234375 C 151.21875 -56.710938 157.863281 -59.492188 164.375 -61.578125 C 170.894531 -63.660156 177.253906 -64.703125 183.453125 -64.703125 C 184.546875 -64.703125 185.09375 -64.5625 185.09375 -64.28125 C 185.09375 -64.164062 184.988281 -64.046875 184.78125 -63.921875 C 184.582031 -63.804688 184.398438 -63.691406 184.234375 -63.578125 C 177.222656 -61.035156 170.414062 -57.835938 163.8125 -53.984375 C 157.21875 -50.128906 150.878906 -45.882812 144.796875 -41.25 C 138.710938 -36.625 133.003906 -31.890625 127.671875 -27.046875 C 122.347656 -22.210938 117.488281 -17.507812 113.09375 -12.9375 C 110.601562 -10.28125 108.632812 -7.675781 107.1875 -5.125 C 105.738281 -2.570312 104.8125 -0.601562 104.40625 0.78125 C 102.957031 0.78125 101.453125 0.878906 99.890625 1.078125 C 98.328125 1.285156 97.195312 1.390625 96.5 1.390625 C 96.09375 1.390625 95.890625 1.332031 95.890625 1.21875 C 95.890625 1.101562 96.757812 0.25 98.5 -1.34375 C 100.238281 -2.9375 102.410156 -4.921875 105.015625 -7.296875 C 105.066406 -8.109375 105.109375 -8.890625 105.140625 -9.640625 C 105.171875 -10.390625 105.1875 -11.144531 105.1875 -11.90625 C 105.1875 -13.925781 105.039062 -15.875 104.75 -17.75 C 104.457031 -19.632812 104.082031 -21.421875 103.625 -23.109375 C 99.050781 -19.453125 94.375 -16.03125 89.59375 -12.84375 C 84.8125 -9.664062 79.671875 -6.875 74.171875 -4.46875 C 68.671875 -2.070312 62.546875 -0.191406 55.796875 1.171875 C 49.054688 2.535156 41.429688 3.21875 32.921875 3.21875 Z M 105.703125 -7.984375 L 109.609375 -11.71875 C 114.992188 -16.9375 120.304688 -21.960938 125.546875 -26.796875 C 130.796875 -31.628906 136.210938 -36.242188 141.796875 -40.640625 C 147.390625 -45.046875 153.382812 -49.160156 159.78125 -52.984375 C 166.175781 -56.804688 173.285156 -60.28125 181.109375 -63.40625 C 178.035156 -63.40625 174.703125 -62.984375 171.109375 -62.140625 C 167.523438 -61.304688 163.894531 -60.207031 160.21875 -58.84375 C 156.539062 -57.488281 153.003906 -56.023438 149.609375 -54.453125 C 146.222656 -52.890625 143.171875 -51.367188 140.453125 -49.890625 C 137.734375 -48.421875 135.5625 -47.164062 133.9375 -46.125 C 128.257812 -42.414062 123.03125 -38.632812 118.25 -34.78125 C 113.476562 -30.9375 108.832031 -27.21875 104.3125 -23.625 C 104.78125 -21.882812 105.15625 -20.054688 105.4375 -18.140625 C 105.726562 -16.234375 105.875 -14.238281 105.875 -12.15625 C 105.875 -11.46875 105.859375 -10.773438 105.828125 -10.078125 C 105.804688 -9.378906 105.765625 -8.679688 105.703125 -7.984375 Z M 42.5625 -26.578125 C 47.082031 -26.578125 51.929688 -27.171875 57.109375 -28.359375 C 62.296875 -29.546875 67.460938 -31.351562 72.609375 -33.78125 C 77.765625 -36.21875 82.515625 -39.316406 86.859375 -43.078125 C 82.285156 -45.679688 77.257812 -47.5625 71.78125 -48.71875 C 66.3125 -49.882812 60.914062 -50.46875 55.59375 -50.46875 C 51.25 -50.46875 47.117188 -50.132812 43.203125 -49.46875 C 39.296875 -48.800781 35.804688 -47.859375 32.734375 -46.640625 C 29.671875 -45.421875 27.269531 -43.988281 25.53125 -42.34375 C 23.800781 -40.695312 22.9375 -38.914062 22.9375 -37 C 22.9375 -34.738281 23.789062 -32.84375 25.5 -31.3125 C 27.207031 -29.78125 29.535156 -28.609375 32.484375 -27.796875 C 35.441406 -26.984375 38.800781 -26.578125 42.5625 -26.578125 Z M 42.5625 -26.578125 "/></g></g><g style="fill:#000000;fill-opacity:1;"><g transform="translate(421.501341, 92.873177)"><path style="stroke:none" d="M -2.171875 1.21875 C -3.503906 1.21875 -4.515625 0.898438 -5.203125 0.265625 C -5.898438 -0.367188 -6.25 -1.148438 -6.25 -2.078125 C -6.25 -3.765625 -5.582031 -5.632812 -4.25 -7.6875 C -2.925781 -9.738281 -1.179688 -11.894531 0.984375 -14.15625 C 3.160156 -16.414062 5.535156 -18.703125 8.109375 -21.015625 C 10.691406 -23.335938 13.226562 -25.65625 15.71875 -27.96875 C 18.207031 -30.28125 20.4375 -32.476562 22.40625 -34.5625 C 24.144531 -36.414062 26.113281 -38.441406 28.3125 -40.640625 C 30.507812 -42.847656 32.796875 -45.019531 35.171875 -47.15625 C 37.546875 -49.300781 39.863281 -51.253906 42.125 -53.015625 C 44.382812 -54.785156 46.46875 -56.207031 48.375 -57.28125 C 50.289062 -58.351562 51.882812 -58.890625 53.15625 -58.890625 C 54.425781 -58.890625 55.0625 -58.28125 55.0625 -57.0625 C 55.0625 -55.613281 54.148438 -53.515625 52.328125 -50.765625 C 50.503906 -48.015625 47.828125 -44.914062 44.296875 -41.46875 C 40.765625 -38.03125 36.453125 -34.472656 31.359375 -30.796875 C 26.265625 -27.117188 20.441406 -23.65625 13.890625 -20.40625 C 9.898438 -15.832031 6.53125 -12.300781 3.78125 -9.8125 C 1.03125 -7.320312 -1.050781 -5.425781 -2.46875 -4.125 C -3.894531 -2.820312 -4.609375 -1.707031 -4.609375 -0.78125 C -4.609375 -0.03125 -3.851562 0.34375 -2.34375 0.34375 C -1.414062 0.34375 -0.226562 0.113281 1.21875 -0.34375 C 2.664062 -0.8125 4.34375 -1.59375 6.25 -2.6875 C 7.238281 -3.269531 8.265625 -3.9375 9.328125 -4.6875 C 10.398438 -5.4375 11.546875 -6.191406 12.765625 -6.953125 L 21.890625 -13.03125 L 22.234375 -12.328125 L 13.296875 -6.34375 C 10.859375 -4.71875 8.597656 -3.238281 6.515625 -1.90625 C 4.660156 -0.8125 3.007812 -0.0195312 1.5625 0.46875 C 0.113281 0.96875 -1.128906 1.21875 -2.171875 1.21875 Z M 15.375 -22.15625 C 22.257812 -25.914062 28.117188 -29.601562 32.953125 -33.21875 C 37.796875 -36.84375 41.722656 -40.234375 44.734375 -43.390625 C 47.742188 -46.546875 49.957031 -49.265625 51.375 -51.546875 C 52.789062 -53.835938 53.5 -55.503906 53.5 -56.546875 C 53.5 -57.296875 53.179688 -57.671875 52.546875 -57.671875 C 51.617188 -57.671875 50.285156 -57.164062 48.546875 -56.15625 C 46.816406 -55.144531 44.847656 -53.769531 42.640625 -52.03125 C 40.441406 -50.289062 38.125 -48.304688 35.6875 -46.078125 C 33.257812 -43.847656 30.859375 -41.488281 28.484375 -39 C 26.054688 -35.582031 23.738281 -32.484375 21.53125 -29.703125 C 19.332031 -26.921875 17.28125 -24.40625 15.375 -22.15625 Z M 15.375 -22.15625 "/></g></g><g style="fill:#000000;fill-opacity:1;"><g transform="translate(436.178635, 92.873177)"><path style="stroke:none" d="M 0.515625 2.515625 C -1.566406 2.515625 -3.082031 2.109375 -4.03125 1.296875 C -4.988281 0.492188 -5.46875 -0.570312 -5.46875 -1.90625 C -5.46875 -3.53125 -4.875 -5.398438 -3.6875 -7.515625 C -2.5 -9.628906 -0.894531 -11.769531 1.125 -13.9375 C 3.15625 -16.113281 5.472656 -18.125 8.078125 -19.96875 C 10.679688 -21.820312 13.398438 -23.328125 16.234375 -24.484375 C 19.078125 -25.648438 21.890625 -26.234375 24.671875 -26.234375 C 25.765625 -26.234375 26.539062 -26 27 -25.53125 C 27.46875 -25.070312 27.703125 -24.492188 27.703125 -23.796875 C 27.703125 -22.984375 27.425781 -22.113281 26.875 -21.1875 C 26.332031 -20.257812 25.625 -19.476562 24.75 -18.84375 C 23.882812 -18.207031 22.957031 -17.890625 21.96875 -17.890625 C 20.875 -17.890625 20.328125 -18.328125 20.328125 -19.203125 C 20.328125 -19.953125 20.773438 -20.742188 21.671875 -21.578125 C 22.566406 -22.421875 23.828125 -22.84375 25.453125 -22.84375 C 25.679688 -22.84375 25.894531 -22.84375 26.09375 -22.84375 C 26.300781 -22.84375 26.519531 -22.8125 26.75 -22.75 C 26.8125 -22.988281 26.851562 -23.175781 26.875 -23.3125 C 26.90625 -23.457031 26.921875 -23.617188 26.921875 -23.796875 C 26.921875 -24.835938 26.375 -25.359375 25.28125 -25.359375 C 24.113281 -25.359375 22.660156 -24.910156 20.921875 -24.015625 C 19.191406 -23.117188 17.328125 -21.914062 15.328125 -20.40625 C 13.328125 -18.90625 11.359375 -17.253906 9.421875 -15.453125 C 7.484375 -13.660156 5.703125 -11.835938 4.078125 -9.984375 C 2.460938 -8.128906 1.175781 -6.40625 0.21875 -4.8125 C -0.738281 -3.226562 -1.21875 -1.882812 -1.21875 -0.78125 C -1.21875 0.726562 -0.203125 1.484375 1.828125 1.484375 C 3.210938 1.484375 4.757812 1.21875 6.46875 0.6875 C 8.175781 0.164062 9.582031 -0.410156 10.6875 -1.046875 C 12.769531 -2.203125 15.375 -3.835938 18.5 -5.953125 C 21.625 -8.066406 25.039062 -10.335938 28.75 -12.765625 L 29.09375 -12.078125 C 25.5625 -9.753906 22.273438 -7.550781 19.234375 -5.46875 C 16.191406 -3.382812 13.457031 -1.675781 11.03125 -0.34375 C 9.46875 0.46875 7.742188 1.144531 5.859375 1.6875 C 3.984375 2.238281 2.203125 2.515625 0.515625 2.515625 Z M 0.515625 2.515625 "/></g></g><g style="fill:#000000;fill-opacity:1;"><g transform="translate(458.151399, 92.873177)"><path style="stroke:none" d="M -3.21875 1.65625 C -5.070312 1.65625 -6 0.582031 -6 -1.5625 C -6 -2.945312 -5.519531 -4.640625 -4.5625 -6.640625 C -3.601562 -8.640625 -2.164062 -10.695312 -0.25 -12.8125 C 1.65625 -14.925781 4.023438 -16.894531 6.859375 -18.71875 C 9.703125 -20.539062 13.03125 -22.015625 16.84375 -23.140625 C 20.664062 -24.273438 24.953125 -24.84375 29.703125 -24.84375 C 30.335938 -24.84375 31.003906 -24.828125 31.703125 -24.796875 C 32.398438 -24.765625 33.15625 -24.75 33.96875 -24.75 C 34.945312 -24.75 35.984375 -24.773438 37.078125 -24.828125 C 38.179688 -24.890625 39.375 -25.007812 40.65625 -25.1875 L 40.828125 -24.921875 C 39.609375 -23.878906 38.039062 -22.398438 36.125 -20.484375 C 34.21875 -18.578125 32.09375 -16.4375 29.75 -14.0625 C 27.40625 -11.695312 24.929688 -9.238281 22.328125 -6.6875 C 19.429688 -3.789062 17.984375 -1.734375 17.984375 -0.515625 C 17.984375 0.00390625 18.300781 0.265625 18.9375 0.265625 C 19.507812 0.265625 20.332031 0.046875 21.40625 -0.390625 C 22.476562 -0.828125 23.769531 -1.507812 25.28125 -2.4375 C 27.300781 -3.769531 29.65625 -5.332031 32.34375 -7.125 C 35.039062 -8.914062 37.894531 -10.796875 40.90625 -12.765625 L 41.265625 -12.078125 C 38.242188 -10.109375 35.414062 -8.222656 32.78125 -6.421875 C 30.15625 -4.628906 27.738281 -3.039062 25.53125 -1.65625 C 24.03125 -0.726562 22.566406 -0.0195312 21.140625 0.46875 C 19.722656 0.96875 18.492188 1.21875 17.453125 1.21875 C 15.203125 1.21875 14.078125 0.347656 14.078125 -1.390625 C 14.078125 -2.203125 14.394531 -3.210938 15.03125 -4.421875 C 15.664062 -5.640625 16.675781 -7.003906 18.0625 -8.515625 L 20.5 -11.125 C 18.644531 -9.726562 16.617188 -8.289062 14.421875 -6.8125 C 12.222656 -5.34375 10.035156 -3.96875 7.859375 -2.6875 C 5.691406 -1.414062 3.632812 -0.375 1.6875 0.4375 C -0.25 1.25 -1.882812 1.65625 -3.21875 1.65625 Z M -2.265625 0.6875 C -1.046875 0.6875 0.632812 0.179688 2.78125 -0.828125 C 4.925781 -1.835938 7.242188 -3.140625 9.734375 -4.734375 C 12.222656 -6.328125 14.695312 -7.976562 17.15625 -9.6875 C 19.613281 -11.394531 21.769531 -12.941406 23.625 -14.328125 C 25.132812 -15.835938 26.65625 -17.359375 28.1875 -18.890625 C 29.71875 -20.421875 31.238281 -21.941406 32.75 -23.453125 C 32.75 -23.503906 32.757812 -23.546875 32.78125 -23.578125 C 32.8125 -23.609375 32.828125 -23.65625 32.828125 -23.71875 C 32.828125 -23.945312 32.65625 -24.0625 32.3125 -24.0625 L 28.921875 -24.0625 C 26.898438 -24.0625 24.703125 -23.582031 22.328125 -22.625 C 19.953125 -21.664062 17.5625 -20.390625 15.15625 -18.796875 C 12.75 -17.210938 10.445312 -15.492188 8.25 -13.640625 C 6.050781 -11.785156 4.097656 -9.957031 2.390625 -8.15625 C 0.679688 -6.363281 -0.675781 -4.742188 -1.6875 -3.296875 C -2.707031 -1.847656 -3.21875 -0.78125 -3.21875 -0.09375 C -3.21875 0.425781 -2.898438 0.6875 -2.265625 0.6875 Z M -2.265625 0.6875 "/></g></g><g style="fill:#000000;fill-opacity:1;"><g transform="translate(492.283257, 92.873177)"><path style="stroke:none" d="M 4.4375 2.515625 C 2.519531 2.515625 1.5625 1.242188 1.5625 -1.296875 C 1.5625 -2.691406 2.082031 -4.171875 3.125 -5.734375 C 4.164062 -7.296875 5.492188 -8.875 7.109375 -10.46875 C 8.734375 -12.0625 10.472656 -13.625 12.328125 -15.15625 C 14.179688 -16.6875 15.921875 -18.132812 17.546875 -19.5 C 19.171875 -20.863281 20.503906 -22.078125 21.546875 -23.140625 C 22.585938 -24.210938 23.109375 -25.066406 23.109375 -25.703125 C 23.109375 -25.992188 23.046875 -26.488281 22.921875 -27.1875 C 22.804688 -27.882812 22.691406 -28.640625 22.578125 -29.453125 C 21.941406 -28.691406 20.796875 -27.53125 19.140625 -25.96875 C 17.492188 -24.40625 15.132812 -22.421875 12.0625 -20.015625 C 9 -17.617188 4.976562 -14.796875 0 -11.546875 L -0.609375 -12.078125 C 4.722656 -15.546875 8.960938 -18.507812 12.109375 -20.96875 C 15.265625 -23.4375 17.640625 -25.4375 19.234375 -26.96875 C 20.828125 -28.5 21.914062 -29.613281 22.5 -30.3125 L 22.5 -31.96875 C 22.5 -33.757812 22.972656 -35.070312 23.921875 -35.90625 C 24.878906 -36.75 25.820312 -37.171875 26.75 -37.171875 C 27.96875 -37.171875 28.578125 -36.648438 28.578125 -35.609375 C 28.578125 -34.679688 28.054688 -33.796875 27.015625 -32.953125 C 25.972656 -32.117188 25.101562 -31.554688 24.40625 -31.265625 C 23.945312 -31.035156 23.71875 -30.691406 23.71875 -30.234375 C 23.71875 -28.953125 23.847656 -27.660156 24.109375 -26.359375 C 24.367188 -25.054688 24.5 -23.738281 24.5 -22.40625 C 24.5 -20.726562 23.816406 -19.050781 22.453125 -17.375 C 21.085938 -15.695312 19.40625 -14.03125 17.40625 -12.375 C 15.414062 -10.726562 13.40625 -9.148438 11.375 -7.640625 C 9.351562 -6.140625 7.660156 -4.738281 6.296875 -3.4375 C 4.929688 -2.132812 4.25 -0.957031 4.25 0.09375 C 4.25 1.019531 4.6875 1.484375 5.5625 1.484375 C 6.65625 1.484375 8.332031 0.832031 10.59375 -0.46875 C 12.851562 -1.78125 15.601562 -3.503906 18.84375 -5.640625 C 22.09375 -7.785156 25.6875 -10.160156 29.625 -12.765625 L 29.96875 -12.078125 C 26.144531 -9.523438 22.566406 -7.132812 19.234375 -4.90625 C 15.910156 -2.675781 12.988281 -0.882812 10.46875 0.46875 C 7.945312 1.832031 5.9375 2.515625 4.4375 2.515625 Z M 4.4375 2.515625 "/></g></g><g style="fill:#000000;fill-opacity:1;"><g transform="translate(515.124515, 92.873177)"><path style="stroke:none" d="M -3.21875 1.65625 C -5.070312 1.65625 -6 0.582031 -6 -1.5625 C -6 -2.945312 -5.519531 -4.640625 -4.5625 -6.640625 C -3.601562 -8.640625 -2.164062 -10.695312 -0.25 -12.8125 C 1.65625 -14.925781 4.023438 -16.894531 6.859375 -18.71875 C 9.703125 -20.539062 13.03125 -22.015625 16.84375 -23.140625 C 20.664062 -24.273438 24.953125 -24.84375 29.703125 -24.84375 C 30.335938 -24.84375 31.003906 -24.828125 31.703125 -24.796875 C 32.398438 -24.765625 33.15625 -24.75 33.96875 -24.75 C 34.945312 -24.75 35.984375 -24.773438 37.078125 -24.828125 C 38.179688 -24.890625 39.375 -25.007812 40.65625 -25.1875 L 40.828125 -24.921875 C 39.609375 -23.878906 38.039062 -22.398438 36.125 -20.484375 C 34.21875 -18.578125 32.09375 -16.4375 29.75 -14.0625 C 27.40625 -11.695312 24.929688 -9.238281 22.328125 -6.6875 C 19.429688 -3.789062 17.984375 -1.734375 17.984375 -0.515625 C 17.984375 0.00390625 18.300781 0.265625 18.9375 0.265625 C 19.507812 0.265625 20.332031 0.046875 21.40625 -0.390625 C 22.476562 -0.828125 23.769531 -1.507812 25.28125 -2.4375 C 27.300781 -3.769531 29.65625 -5.332031 32.34375 -7.125 C 35.039062 -8.914062 37.894531 -10.796875 40.90625 -12.765625 L 41.265625 -12.078125 C 38.242188 -10.109375 35.414062 -8.222656 32.78125 -6.421875 C 30.15625 -4.628906 27.738281 -3.039062 25.53125 -1.65625 C 24.03125 -0.726562 22.566406 -0.0195312 21.140625 0.46875 C 19.722656 0.96875 18.492188 1.21875 17.453125 1.21875 C 15.203125 1.21875 14.078125 0.347656 14.078125 -1.390625 C 14.078125 -2.203125 14.394531 -3.210938 15.03125 -4.421875 C 15.664062 -5.640625 16.675781 -7.003906 18.0625 -8.515625 L 20.5 -11.125 C 18.644531 -9.726562 16.617188 -8.289062 14.421875 -6.8125 C 12.222656 -5.34375 10.035156 -3.96875 7.859375 -2.6875 C 5.691406 -1.414062 3.632812 -0.375 1.6875 0.4375 C -0.25 1.25 -1.882812 1.65625 -3.21875 1.65625 Z M -2.265625 0.6875 C -1.046875 0.6875 0.632812 0.179688 2.78125 -0.828125 C 4.925781 -1.835938 7.242188 -3.140625 9.734375 -4.734375 C 12.222656 -6.328125 14.695312 -7.976562 17.15625 -9.6875 C 19.613281 -11.394531 21.769531 -12.941406 23.625 -14.328125 C 25.132812 -15.835938 26.65625 -17.359375 28.1875 -18.890625 C 29.71875 -20.421875 31.238281 -21.941406 32.75 -23.453125 C 32.75 -23.503906 32.757812 -23.546875 32.78125 -23.578125 C 32.8125 -23.609375 32.828125 -23.65625 32.828125 -23.71875 C 32.828125 -23.945312 32.65625 -24.0625 32.3125 -24.0625 L 28.921875 -24.0625 C 26.898438 -24.0625 24.703125 -23.582031 22.328125 -22.625 C 19.953125 -21.664062 17.5625 -20.390625 15.15625 -18.796875 C 12.75 -17.210938 10.445312 -15.492188 8.25 -13.640625 C 6.050781 -11.785156 4.097656 -9.957031 2.390625 -8.15625 C 0.679688 -6.363281 -0.675781 -4.742188 -1.6875 -3.296875 C -2.707031 -1.847656 -3.21875 -0.78125 -3.21875 -0.09375 C -3.21875 0.425781 -2.898438 0.6875 -2.265625 0.6875 Z M -2.265625 0.6875 "/></g></g><g style="fill:#000000;fill-opacity:1;"><g transform="translate(549.256373, 92.873177)"><path style="stroke:none" d="M -23.796875 31.09375 C -26.117188 31.09375 -27.828125 30.757812 -28.921875 30.09375 C -30.023438 29.425781 -30.578125 28.546875 -30.578125 27.453125 C -30.578125 25.890625 -29.632812 24.0625 -27.75 21.96875 C -25.863281 19.882812 -23.242188 17.742188 -19.890625 15.546875 C -16.535156 13.347656 -12.640625 11.347656 -8.203125 9.546875 C -3.773438 7.753906 0.984375 6.394531 6.078125 5.46875 C 6.710938 4.375 7.21875 3.363281 7.59375 2.4375 C 7.976562 1.507812 8.171875 0.664062 8.171875 -0.09375 C 8.171875 -0.320312 8.15625 -0.519531 8.125 -0.6875 C 8.09375 -0.863281 8.046875 -1.039062 7.984375 -1.21875 C 6.191406 -0.519531 4.328125 0.0390625 2.390625 0.46875 C 0.453125 0.90625 -1.53125 1.125 -3.5625 1.125 C -3.613281 1.125 -3.957031 1.082031 -4.59375 1 C -5.238281 0.914062 -5.5625 0.582031 -5.5625 0 C -5.5625 -1.101562 -4.617188 -2.03125 -2.734375 -2.78125 C -0.847656 -3.53125 1.273438 -3.90625 3.640625 -3.90625 C 4.046875 -3.90625 4.421875 -3.890625 4.765625 -3.859375 C 5.117188 -3.835938 5.46875 -3.796875 5.8125 -3.734375 C 7.78125 -5.066406 9.691406 -6.585938 11.546875 -8.296875 C 13.398438 -10.003906 15.078125 -11.722656 16.578125 -13.453125 C 18.085938 -15.191406 19.289062 -16.785156 20.1875 -18.234375 C 21.09375 -19.679688 21.546875 -20.8125 21.546875 -21.625 C 21.546875 -22.4375 21.082031 -22.84375 20.15625 -22.84375 C 19.164062 -22.84375 17.523438 -22.289062 15.234375 -21.1875 C 12.953125 -20.09375 9.898438 -18.242188 6.078125 -15.640625 L 0.09375 -11.546875 L -0.515625 -12.078125 L 5.734375 -16.25 C 10.367188 -19.3125 14.144531 -21.550781 17.0625 -22.96875 C 19.988281 -24.394531 22.265625 -25.109375 23.890625 -25.109375 C 25.097656 -25.109375 25.976562 -24.800781 26.53125 -24.1875 C 27.082031 -23.582031 27.359375 -22.785156 27.359375 -21.796875 C 27.359375 -20.117188 26.601562 -18.035156 25.09375 -15.546875 C 23.59375 -13.054688 21.507812 -10.582031 18.84375 -8.125 C 16.1875 -5.664062 13.085938 -3.59375 9.546875 -1.90625 C 10.828125 -0.8125 12.25 -0.265625 13.8125 -0.265625 C 14.96875 -0.265625 16.210938 -0.535156 17.546875 -1.078125 C 18.878906 -1.628906 20.351562 -2.398438 21.96875 -3.390625 C 24 -4.609375 26.1875 -6.023438 28.53125 -7.640625 C 30.875 -9.265625 33.410156 -10.972656 36.140625 -12.765625 L 36.484375 -12.078125 L 22.234375 -2.609375 C 21.484375 -2.085938 20.335938 -1.445312 18.796875 -0.6875 C 17.265625 0.0625 15.660156 0.4375 13.984375 0.4375 C 12.648438 0.4375 11.316406 0.0859375 9.984375 -0.609375 C 10.273438 0.140625 10.421875 0.953125 10.421875 1.828125 C 10.421875 2.285156 10.375 2.757812 10.28125 3.25 C 10.195312 3.75 10.097656 4.285156 9.984375 4.859375 C 12.585938 4.515625 15.3125 4.34375 18.15625 4.34375 C 19.082031 4.34375 20.328125 4.367188 21.890625 4.421875 C 23.453125 4.484375 25.015625 4.539062 26.578125 4.59375 C 28.140625 4.65625 29.46875 4.726562 30.5625 4.8125 C 31.664062 4.90625 32.21875 4.953125 32.21875 4.953125 C 32.21875 4.953125 32.144531 5.195312 32 5.6875 C 31.863281 6.175781 31.707031 6.648438 31.53125 7.109375 C 31.351562 7.578125 31.207031 7.8125 31.09375 7.8125 C 30.113281 7.238281 28.445312 6.644531 26.09375 6.03125 C 23.75 5.425781 20.957031 5.125 17.71875 5.125 C 15 5.125 12.335938 5.296875 9.734375 5.640625 C 8.921875 8.242188 7.441406 11.007812 5.296875 13.9375 C 3.148438 16.863281 0.546875 19.628906 -2.515625 22.234375 C -5.585938 24.835938 -8.945312 26.960938 -12.59375 28.609375 C -16.238281 30.265625 -19.972656 31.09375 -23.796875 31.09375 Z M -3.828125 0.265625 C -2.492188 0.265625 -1.085938 -0.0507812 0.390625 -0.6875 C 1.867188 -1.332031 3.414062 -2.175781 5.03125 -3.21875 C 4.800781 -3.21875 4.582031 -3.226562 4.375 -3.25 C 4.175781 -3.28125 3.929688 -3.296875 3.640625 -3.296875 C 1.441406 -3.296875 -0.535156 -2.992188 -2.296875 -2.390625 C -4.066406 -1.785156 -4.953125 -1.078125 -4.953125 -0.265625 C -4.953125 -0.0234375 -4.804688 0.117188 -4.515625 0.171875 C -4.222656 0.234375 -3.992188 0.265625 -3.828125 0.265625 Z M -25.703125 29.53125 C -23.972656 29.53125 -21.992188 29.035156 -19.765625 28.046875 C -17.535156 27.066406 -15.21875 25.765625 -12.8125 24.140625 C -10.40625 22.523438 -8.03125 20.703125 -5.6875 18.671875 C -3.34375 16.648438 -1.203125 14.566406 0.734375 12.421875 C 2.671875 10.273438 4.28125 8.25 5.5625 6.34375 C 0.632812 7.269531 -3.96875 8.628906 -8.25 10.421875 C -12.53125 12.210938 -16.28125 14.164062 -19.5 16.28125 C -22.71875 18.394531 -25.222656 20.421875 -27.015625 22.359375 C -28.804688 24.304688 -29.703125 25.914062 -29.703125 27.1875 C -29.703125 28.75 -28.367188 29.53125 -25.703125 29.53125 Z M -25.703125 29.53125 "/></g></g></g></svg>